<?xml version="1.0" encoding="utf-8"?>
<!-- Generator: Adobe Illustrator 25.3.1, SVG Export Plug-In . SVG Version: 6.00 Build 0)  -->
<svg version="1.1" id="Capa_1" xmlns="http://www.w3.org/2000/svg" xmlns:xlink="http://www.w3.org/1999/xlink" x="0px" y="0px"
	 viewBox="0 0 800 800" style="enable-background:new 0 0 800 800;" xml:space="preserve">
<style type="text/css">
	.st0{fill:#FDD94D;}
	.st1{opacity:0.5;fill:#F8C00C;}
	.st2{fill:#7D5435;}
	.st3{fill:#FFFFFF;}
	.st4{fill:#F19DBD;}
	.st5{fill:#DA7F19;}
	.st6{fill:#EE881D;}
	.st7{fill:#F8C00C;}
	.st8{opacity:0.4;fill:#FFF7DB;}
	.st9{opacity:0.3;fill:#F8C00C;}
	.st10{fill:#FFDA16;}
	.st11{opacity:0.4;fill:#F8C00C;}
	.st12{fill:url(#SVGID_1_);}
	.st13{fill:url(#SVGID_2_);}
	.st14{fill:url(#SVGID_3_);}
	.st15{opacity:0.2;}
	.st16{fill:url(#SVGID_4_);}
	.st17{fill:#843511;}
	.st18{fill:url(#SVGID_5_);}
	.st19{fill:url(#SVGID_6_);}
	.st20{fill:url(#SVGID_7_);}
	.st21{fill:url(#SVGID_8_);}
	.st22{fill:url(#SVGID_9_);}
	.st23{fill:url(#SVGID_10_);}
	.st24{fill:url(#SVGID_11_);}
	.st25{fill:url(#SVGID_12_);}
	.st26{fill:url(#SVGID_13_);}
	.st27{fill:url(#SVGID_14_);}
	.st28{fill:url(#SVGID_15_);}
	.st29{fill:url(#SVGID_16_);}
	.st30{fill:url(#SVGID_17_);}
	.st31{fill:url(#SVGID_18_);}
	.st32{fill:url(#SVGID_19_);}
	.st33{fill:url(#SVGID_20_);}
	.st34{fill:url(#SVGID_21_);}
	.st35{fill:url(#SVGID_22_);}
	.st36{fill:url(#SVGID_23_);}
	.st37{fill:url(#SVGID_24_);}
	.st38{fill:url(#SVGID_25_);}
	.st39{fill:url(#SVGID_26_);}
	.st40{fill:url(#SVGID_27_);}
	.st41{fill:url(#SVGID_28_);}
	.st42{fill:url(#SVGID_29_);}
	.st43{fill:url(#SVGID_30_);}
	.st44{fill:url(#SVGID_31_);}
	.st45{fill:url(#SVGID_32_);}
	.st46{fill:url(#SVGID_33_);}
	.st47{fill:url(#SVGID_34_);}
	.st48{fill:url(#SVGID_35_);}
	.st49{fill:url(#SVGID_36_);}
	.st50{fill:#00517D;}
	.st51{fill:url(#SVGID_37_);}
	.st52{fill:url(#SVGID_38_);}
	.st53{fill:url(#SVGID_39_);}
	.st54{opacity:0.1;fill:#FFFFFF;}
	.st55{fill:url(#SVGID_40_);}
	.st56{opacity:0.4;}
	.st57{fill:url(#SVGID_41_);}
	.st58{fill:#008DB3;}
	.st59{fill:#FFC942;}
	.st60{fill:#FF9D27;}
	.st61{fill:#FDF516;}
	.st62{fill:#3BAACF;}
	.st63{fill:#428BC1;}
	.st64{fill:#C5D0D8;}
	.st65{fill:#DAE3EA;}
	.st66{fill:#C94747;}
	.st67{fill:#F15744;}
	.st68{fill:#3E4347;}
	.st69{fill:#62727A;}
	.st70{fill:#EDF4F9;}
	.st71{fill:#212528;}
	.st72{fill:#DDDDDD;}
	.st73{fill:#BFBEBE;}
	.st74{fill:#616466;}
	.st75{fill:#FFCE31;}
	.st76{fill:#C79127;}
	.st77{fill:#94989B;}
	.st78{fill:#256382;}
	.st79{fill:#D9E3E8;}
	.st80{fill:#42ADE2;}
	.st81{fill:#547725;}
	.st82{fill:#83BF4F;}
	.st83{fill:#699635;}
	.st84{fill:#962C2C;}
	.st85{fill:#ED4C5C;}
	.st86{fill:#333333;}
	.st87{fill:#D0D0D0;}
	.st88{fill:#29ABE2;}
</style>
<g>
	<path class="st0" d="M197.3,518.6c0.5-3.3,8.4-12.3,9.8-15.6c0,0,0,0,0,0c3-5.6,4.4-12.1,3.6-18.9c-0.9-7.8-4.7-15.1-10.5-20.4
		c-2.8-2.6-6.1-4.6-9.7-6c-1.8-0.7-3.6-1.3-5.4-1.6c-2.6-0.4,0-3.4,0.4-3c-2.4-1.8-7.2,1.2-7.2,1.2s-1.9-0.8,0.2-3.4
		c-10.7,3.9-14.9,8.1-18.1,10.2c-3.2,2.2-6,4.9-8.2,8.1c-4.5,6.4-6.6,14.4-5.7,22.2c0.1,1.3,0.4,2.5,0.7,3.8
		c1.2,7.5,5.7,15.7,8.7,23.6c4.2,10.7,5.8,20.8-6.8,27.4c-11.2,5.9-27,5.3-38.3,0.5c-5.1-2.2-9.8-5.4-13.3-9.7
		c-2.2-2.7-4.9-6.9-7.5-15.1c-21.9,52.1,6.5,96,66.1,89.2c94.2-10.7,49.6-73.9,49.6-73.9S196.3,525.6,197.3,518.6z"/>
	<path class="st1" d="M208.5,475.4c1.2,15.1-8.5,25.6-8.2,27.6c0.5,2.5,2.8,1.8,5.6,2.1c0.5-0.8,1-1.6,1.2-2.1c0,0,0,0,0,0
		c3-5.6,4.4-12.1,3.6-18.9C210.4,481,209.6,478.1,208.5,475.4z"/>
	<g>
		<path class="st2" d="M198,480.6c0.4,3.3-1.4,6.1-3.9,6.4c-2.5,0.3-4.9-2.1-5.2-5.4c-0.4-3.3,1.4-6.1,3.9-6.4
			C195.3,475,197.6,477.4,198,480.6z"/>
		<path class="st3" d="M193.3,479.5c0.1,1.2-0.5,2.3-1.4,2.4c-0.9,0.1-1.8-0.8-1.9-2c-0.1-1.2,0.5-2.3,1.4-2.4
			C192.3,477.4,193.1,478.3,193.3,479.5z"/>
	</g>
	<path class="st4" d="M198,490.2c0.1,0.8-1.7,1.6-4,1.9c-2.3,0.3-4.3-0.2-4.4-0.9c-0.1-0.8,1.7-1.6,4-1.9
		C195.9,489,197.9,489.4,198,490.2z"/>
	<path class="st5" d="M236.6,485.8c-3.6,1.2-8.8,2.8-12.7,2.4c-2.5-0.2-4.6-0.9-6.7-2c-2.7,1.1-5.3,2.6-7.6,4.2
		c-0.4,1.1-0.8,2.1-1.3,2.9c-1.3,2.1-2.6,4-4.3,5.8c-1.4,1.4-3.8,1.8-3.7,3.9c0.3,5.7,10.4,6.3,13.9,5.8
		C241,504.4,238.6,489.2,236.6,485.8z"/>
	<path class="st6" d="M209.1,476.8c1.6,2.4,2.1,4.9,4.7,6.3c2.9,1.5,5.6,2.2,8.9,2.1c4-0.1,9.1-0.7,12.6-2.3
		c2.4,3.1,2.3,9.4,0.6,12.8c-3.3,6.5-14.3,10-20.9,11c-3.5,0.6-13.7,2.2-14.6-3.4c-0.3-2.1,1.9-3.5,3.2-5c1.6-1.9,2.6-4,3.8-6.2
		C209.7,487.4,209.1,476.8,209.1,476.8z"/>
	<path class="st7" d="M156.2,611.1c94.2-10.7,49.6-73.9,49.6-73.9s-9.4-11.6-8.4-18.6c0.1-0.5,0.3-1.1,0.6-1.7c0,0,0,0,0,0
		c-4,6.8-1.1,14,2.3,20.3c1.1,2.1,2.3,4.1,3.4,6c3.5,6.2,7.2,15.5,4.2,22.4c-9.7,21.9-68.1,44.6-112.9,12.5
		c-3.4-2.4-6.2-5.6-8.9-8.7c-0.6-0.6-1.4-1.7-2.4-2.9C88.7,596.2,115,615.8,156.2,611.1z"/>
	<g>
		<path class="st7" d="M153.4,602.9c-35.1,4-59.4-9.6-68.9-32.1c6.8,27.3,32.5,44.7,71.7,40.2c68.3-7.8,63.6-43.2,55.9-62
			C217,568.5,212.8,596.1,153.4,602.9z"/>
	</g>
	<path class="st7" d="M183.1,456.6c0.5,0,0.6-0.2,1.1-0.4c0.2-0.1,0.6-0.2,0.9-0.2c-2.6-0.4,0-3.4,0.4-3c0,0-0.1,0-0.1-0.1
		c-1,0.2-2,0.7-2.6,1.5C182.3,455.2,181.9,456.6,183.1,456.6z"/>
	<path class="st7" d="M176.5,455.7c0.5,0.2,1.3-1,1.7-1.5c-0.1,0-1.9-0.8,0.2-3.4c0,0,0,0,0,0c-0.6,0.6-1.1,1.3-1.6,2.2
		C176.7,453.4,175.9,455.4,176.5,455.7z"/>
	<path class="st8" d="M149.6,488.9c0.5,2.2,1.5,4.2,3.4,5.5c3.9,2.8,6.3-0.6,7.5-4c1.9-5.6,2.5-9.4,5.3-14.1
		c7.2-12.1,2.4-13-0.8-12.7c-6,0.5-11.3,7.3-13.7,12.9C149.8,479.9,148.7,484.8,149.6,488.9z"/>
	<path class="st9" d="M166.2,547.7c-2.2,0.7-4,2.1-6.2,3.8c-14.9,11.2-38.8,10.2-47.7,6.9c-0.2,2.5,4.2,8.2,11.9,7.3
		c0.1,1.1-8.4,1.4-11.1,0.2c-0.8,6.7,10.8,9.7,14.9,9.4c-1.8,1.2-7.5,0.4-10.5-1.1c-0.1,2,1.3,8.7,10.2,12.3
		c15.2,6.1,34.5,3.5,45.2-9.2c2.6-3.1,5.4-7.4,6.5-11.3c1.1-4,0.8-8.5-0.7-12.3c-1.4-3.6-4.9-5.8-8.6-6.3
		C168.6,547.1,167.3,547.3,166.2,547.7z"/>
	<path class="st10" d="M164.4,545.6c-2.2,0.7-4,2.1-6.2,3.8c-14.9,11.2-38.8,10.2-47.7,6.9c-0.2,2.5,4.2,8.2,11.9,7.3
		c0.1,1.1-8.4,1.4-11.1,0.2c-0.8,6.7,10.8,9.7,14.9,9.4c-1.8,1.2-7.5,0.4-10.5-1.1c-0.1,2,1.3,8.7,10.2,12.3
		c15.2,6.1,34.5,3.5,45.2-9.2c2.6-3.1,5.4-7.4,6.5-11.3c1.1-4,0.8-8.5-0.7-12.3c-1.4-3.6-4.9-5.8-8.6-6.3
		C166.8,545.1,165.5,545.2,164.4,545.6z"/>
	<path class="st10" d="M66.7,588.7"/>
	<path class="st11" d="M177,551.6c-1.4-3.6-4.9-5.8-8.6-6.3c-1.6-0.2-2.9,0-4,0.3c-2.2,0.7-4,2.1-6.2,3.8c-1,0.8-2.1,1.5-3.1,2.1
		c0.1,0.6,0.2,1.3,0.4,2c0.7,2.4,2.5,4.5,2.5,7.1c-0.1,2.5-1.8,5.4-3.3,7.3c-4.5,5.5-11.3,9-18.2,10.5c-4.2,0.9-9.8,1-13.8-0.4
		c-1.8-0.6-5.4-3.3-6.8-5.7c0,2.2,1.5,8.6,10.2,12.2c15.2,6.1,34.5,3.5,45.2-9.2c2.6-3.1,5.4-7.4,6.5-11.3
		C178.8,559.9,178.5,555.4,177,551.6z"/>
	<path class="st11" d="M168.4,545.3c-1.6-0.2-2.9,0-4,0.3c-2.2,0.7,7.9,17.4-6.1,27.7c-2.9,2.2-5.8,4.7-9.2,6.2
		c-4.6,1.9-9,2.4-13.9,2.9c-4.2,0.5-7.7,0.3-11.7-0.8c-1.2-0.3-2.8-1.2-4.4-1.8c1.5,1.7,3.7,3.3,6.9,4.6c15.2,6.1,34.5,3.5,45.2-9.2
		c2.6-3.1,5.4-7.4,6.5-11.3c1.1-4,0.8-8.5-0.7-12.3C175.6,548,172,545.7,168.4,545.3z"/>
	<path class="st11" d="M126.1,573.2c0,0-0.1-0.1-0.1-0.2c-0.1-0.3-11.9-4.7-14.7-8.9C110.9,570.5,122,573.5,126.1,573.2z"/>
	<path class="st11" d="M122.4,563.6c-0.3-0.3-0.9-0.3-1.3-0.3c-0.6-0.1-7.2-1.7-10.5-7c0,0-0.1,0-0.1,0
		C110.3,558.8,114.6,564.5,122.4,563.6z"/>
	<path class="st8" d="M137.9,560.4c2.8-0.3,6.1-3.7,8.8-3.3c4.8,0.6-0.9,7-2.2,8.3c-2.8,2.7-7.1,4.3-10.8,5.4
		c-2.1,0.6-11.8,1.6-9.2-3.7c0.9-1.8,1.5-1.5,0.9-3.5c-0.2-0.9-1.7-1.3-0.6-2.4c0.6-0.7,2.4-0.3,3.2-0.3
		C131.2,560.9,134.5,560.8,137.9,560.4z"/>
</g>
<g>
	<g>
		<g>
			<g>
				<g>
					<g>
						
							<linearGradient id="SVGID_1_" gradientUnits="userSpaceOnUse" x1="729.9469" y1="522.129" x2="727.3124" y2="308.7281" gradientTransform="matrix(0.9855 0.1702 -0.1702 0.9855 68.3943 -149.6273)">
							<stop  offset="0.5456" style="stop-color:#FFFFFF"/>
							<stop  offset="0.9769" style="stop-color:#E6E6E6"/>
						</linearGradient>
						<path class="st12" d="M782.5,343.6c0,0,0,0-0.1,0.1c0,0,0,0.1,0,0.1c0,0,0,0,0,0.1c0,0,0,0,0,0.1c0,0.1-0.1,0.1-0.1,0.2
							c0,0.1-0.1,0.1-0.1,0.2c0,0,0,0.1,0,0.1c0,0.1-0.1,0.2-0.1,0.3c0,0.1-0.1,0.2-0.2,0.4c-0.1,0.1-0.1,0.3-0.2,0.4
							c-0.2,0.4-0.4,1-0.6,1.6c-0.2,0.4-0.3,0.8-0.5,1.3c-0.1,0.2-0.2,0.5-0.3,0.7c0,0.1-0.1,0.1-0.1,0.2c-0.1,0.2-0.1,0.3-0.2,0.5
							c-0.3,0.8-0.6,1.6-0.9,2.5c-0.1,0.4-0.3,0.7-0.4,1.1c0,0.1-0.1,0.3-0.1,0.4c-0.1,0.3-0.2,0.6-0.3,0.8
							c-0.1,0.3-0.2,0.6-0.3,0.9c-0.1,0.3-0.2,0.6-0.3,0.9c0,0.1-0.1,0.3-0.1,0.5c-0.2,0.6-0.4,1.1-0.5,1.7
							c-0.1,0.2-0.1,0.4-0.2,0.6c0,0,0,0,0,0c-0.1,0.2-0.1,0.4-0.2,0.7c-0.1,0.2-0.1,0.5-0.2,0.7c-0.1,0.2-0.1,0.5-0.2,0.7
							c-0.2,0.7-0.4,1.4-0.6,2.1c-0.1,0.2-0.1,0.5-0.2,0.7c-0.1,0.5-0.3,1-0.4,1.5c-2.9,10.4-5.7,23.8-6.7,38.2
							c-0.3,4.2-0.6,8.2-1,11.9c0,0,0,0,0,0.1c-2.7,24.3-7.5,36.6-7.8,37.2c0,0,0,0,0,0s-30.6-14.8-57.7-13.2
							c-13,0.7-25.9-1.2-35.8-3.5c-10.8-2.5-18-5.3-18-5.3l19.5-113c0,0,0.6,0.5,1.8,1.2c2.2,1.4,6.7,3.7,13.5,5.8
							c7.9,2.5,19.1,4.6,34,4.7C760.1,329.9,772,336.1,782.5,343.6L782.5,343.6z"/>
						
							<linearGradient id="SVGID_2_" gradientUnits="userSpaceOnUse" x1="802.7373" y1="376.1631" x2="679.4517" y2="379.1623" gradientTransform="matrix(0.9855 0.1702 -0.1702 0.9855 68.3943 -149.6273)">
							<stop  offset="7.238650e-02" style="stop-color:#5BCBF6"/>
							<stop  offset="0.9359" style="stop-color:#118CCF"/>
						</linearGradient>
						<path class="st13" d="M782.5,343.6c0,0,0,0-0.1,0.1c0,0,0,0.1,0,0.1c0,0,0,0,0,0.1c0,0,0,0,0,0.1c0,0.1-0.1,0.1-0.1,0.2
							c0,0.1-0.1,0.1-0.1,0.2c0,0,0,0.1,0,0.1c0,0.1-0.1,0.2-0.1,0.3c0,0.1-0.1,0.2-0.2,0.4c-0.1,0.1-0.1,0.3-0.2,0.4
							c-0.2,0.4-0.4,1-0.6,1.6c-0.2,0.4-0.3,0.8-0.5,1.3c-0.1,0.2-0.2,0.5-0.3,0.7c0,0.1-0.1,0.1-0.1,0.2c-0.1,0.2-0.1,0.3-0.2,0.5
							c-0.3,0.8-0.6,1.6-0.9,2.5c-0.1,0.4-0.3,0.7-0.4,1.1c0,0.1-0.1,0.3-0.1,0.4c-0.1,0.3-0.2,0.6-0.3,0.8
							c-0.1,0.3-0.2,0.6-0.3,0.9c-0.1,0.3-0.2,0.6-0.3,0.9c0,0.1-0.1,0.3-0.1,0.5c-0.2,0.5-0.4,1.1-0.5,1.7
							c-0.1,0.2-0.1,0.4-0.2,0.6c0,0,0,0,0,0c-0.1,0.2-0.1,0.4-0.2,0.7c-0.1,0.2-0.1,0.4-0.2,0.7c-0.1,0.2-0.1,0.5-0.2,0.7
							c-0.2,0.7-0.4,1.4-0.6,2.1c-0.1,0.2-0.1,0.5-0.2,0.7c-0.1,0.5-0.3,1-0.4,1.5c-0.8,2.8-1.5,5.8-2.3,8.9
							c-10.4-5.5-25.8-9.7-62.5-10.2c-15.5-0.2-27.2-2.4-35.6-4.9c-6.3-1.9-10.7-3.9-13.4-5.4l6.2-36c0,0,0.6,0.5,1.8,1.2
							c2.2,1.4,6.7,3.7,13.5,5.8c7.9,2.5,19.1,4.6,34,4.7C760.1,329.9,772,336.1,782.5,343.6z"/>
						
							<linearGradient id="SVGID_3_" gradientUnits="userSpaceOnUse" x1="799.0251" y1="453.0945" x2="669.582" y2="456.4094" gradientTransform="matrix(0.9855 0.1702 -0.1702 0.9855 68.3943 -149.6273)">
							<stop  offset="7.238650e-02" style="stop-color:#5BCBF6"/>
							<stop  offset="0.9359" style="stop-color:#118CCF"/>
						</linearGradient>
						<path class="st14" d="M759.4,453C759.4,453,759.4,453,759.4,453c0,0-30.6-14.8-57.7-13.2c-13,0.7-25.9-1.2-35.8-3.5
							c-10.8-2.5-18-5.3-18-5.3l6.8-39.3c3.3,1,7.9,2.8,13.3,4.6c11.2,3.7,26.2,7.7,41.4,6.8c22.1-1.3,46.3,7.8,57.9,12.5
							c0,0,0,0,0,0.1C764.7,442.7,759.7,452.5,759.4,453z"/>
					</g>
					<path class="st15" d="M665.9,436.3c-10.8-2.5-18-5.3-18-5.3l17.4-100.5l3.9-11.3c2.2,1.4,6.7,3.7,13.5,5.8
						c-1.3,5.9-4.3,18.9-8.1,34.4c-0.6,2.4-1.2,4.9-1.8,7.4c-2,8.1-3.6,18.7-4.7,29.5C666.4,411.7,665.7,427.3,665.9,436.3z"/>
				</g>
				<g>
					<g>
						<g>
							<g>
								<linearGradient id="SVGID_4_" gradientUnits="userSpaceOnUse" x1="673.902" y1="367.654" x2="676.7426" y2="367.654">
									<stop  offset="7.238650e-02" style="stop-color:#FFE567"/>
									<stop  offset="0.9359" style="stop-color:#F4B13B"/>
								</linearGradient>
								<path class="st16" d="M673.9,372.2c0.4,0,0.8,0.1,1.2,0.2c0.3-1.5-0.1-2.9,0.7-4.3c0.9-1.8,0.3-3.2,0.4-4
									c0.1-0.8,0.7-1,0.6-1.2c-0.2-0.2-0.9,0.2-1.1,1.3c-0.3,1.1,0.4,1.7-0.7,3.8C673.9,369.8,674.4,370.8,673.9,372.2z"/>
								<path class="st17" d="M675.1,372.5L675.1,372.5c-0.4-0.1-0.8-0.2-1.2-0.2l0,0l0,0c0.2-0.6,0.2-1.1,0.3-1.6
									c0.1-0.8,0.1-1.5,0.7-2.6c0.7-1.4,0.7-2.2,0.7-2.8c0-0.3,0-0.7,0.1-1c0.2-0.9,0.7-1.3,1-1.3c0.1,0,0.1,0,0.1,0.1
									c0.1,0.1,0,0.2-0.1,0.3c-0.2,0.2-0.4,0.4-0.4,0.9c0,0.2,0,0.5,0,0.8c0.1,0.8,0.2,2-0.5,3.2c-0.5,0.9-0.5,1.7-0.5,2.6
									C675.2,371.3,675.2,371.9,675.1,372.5L675.1,372.5z M673.9,372.2c0.4,0,0.7,0.1,1.1,0.2c0.1-0.6,0.1-1.1,0.2-1.7
									c0-0.9,0.1-1.7,0.5-2.6c0.7-1.3,0.5-2.4,0.5-3.2c0-0.3-0.1-0.6,0-0.8c0-0.5,0.3-0.8,0.4-0.9c0.1-0.1,0.2-0.2,0.1-0.3
									c0,0-0.1,0-0.1,0c-0.2,0-0.8,0.4-1,1.3c-0.1,0.4-0.1,0.7-0.1,1c0,0.7,0.1,1.4-0.7,2.8c-0.5,1.1-0.6,1.8-0.7,2.6
									C674.2,371.1,674.1,371.6,673.9,372.2z"/>
							</g>
							<linearGradient id="SVGID_5_" gradientUnits="userSpaceOnUse" x1="672.6291" y1="367.3103" x2="673.7464" y2="367.3103">
								<stop  offset="7.238650e-02" style="stop-color:#FFE567"/>
								<stop  offset="0.9359" style="stop-color:#F4B13B"/>
							</linearGradient>
							<path class="st18" d="M673.2,372.2c0.2,0,0.4,0,0.6,0l-0.4-9.5c0,0,0-0.3-0.2-0.3c-0.2,0-0.2,0.3-0.2,0.3l-0.4,9.5
								C672.8,372.2,673,372.2,673.2,372.2z"/>
							<path class="st17" d="M673.8,372.2L673.8,372.2c-0.2,0-0.4,0-0.6,0c-0.2,0-0.4,0-0.6,0l0,0l0,0l0.4-9.5c0-0.1,0-0.3,0.2-0.3
								c0.2,0,0.2,0.2,0.2,0.3L673.8,372.2z M673.2,362.4c-0.2,0-0.2,0.3-0.2,0.3l-0.4,9.5c0.2,0,0.4,0,0.5,0c0.2,0,0.3,0,0.5,0
								l-0.4-9.5C673.4,362.7,673.4,362.4,673.2,362.4z"/>
							<path class="st17" d="M673.2,372.2c0.1,0,0.1,0,0.2,0l-0.2-5.6l-0.2,5.6C673.1,372.2,673.1,372.2,673.2,372.2z"/>
							<path class="st17" d="M674.6,372.4c0.4-1.6,0-3.2,0.8-4.7c-1,1.1-0.6,2.8-1.2,4.6C674.4,372.3,674.5,372.3,674.6,372.4z"/>
						</g>
						<g>
							<g>
								<linearGradient id="SVGID_6_" gradientUnits="userSpaceOnUse" x1="676.3318" y1="369.5071" x2="682.5175" y2="369.5071">
									<stop  offset="7.238650e-02" style="stop-color:#FFE567"/>
									<stop  offset="0.9359" style="stop-color:#F4B13B"/>
								</linearGradient>
								<path class="st19" d="M676.3,373c0.4,0.2,0.7,0.4,1,0.7c0.9-1.3,1.1-2.7,2.3-3.7c1.5-1.3,1.5-2.8,1.9-3.6
									c0.4-0.7,1.1-0.7,1-0.9c-0.1-0.2-0.9-0.2-1.5,0.7c-0.7,0.9-0.3,1.7-2.1,3.3C677.3,370.8,677.3,371.9,676.3,373z"/>
								<path class="st17" d="M677.3,373.7L677.3,373.7c-0.3-0.3-0.6-0.5-1-0.7l0,0l0,0c0.4-0.5,0.6-0.9,0.9-1.4
									c0.3-0.7,0.7-1.4,1.6-2.2c1.2-1,1.5-1.7,1.7-2.4c0.1-0.3,0.2-0.6,0.4-0.9c0.6-0.7,1.2-0.9,1.5-0.8c0.1,0,0.1,0.1,0.1,0.1
									c0,0.1-0.1,0.2-0.2,0.3c-0.2,0.1-0.5,0.3-0.7,0.7c-0.1,0.2-0.2,0.4-0.3,0.7c-0.2,0.8-0.5,1.9-1.7,2.8
									c-0.8,0.6-1.1,1.4-1.5,2.2C677.9,372.7,677.7,373.2,677.3,373.7L677.3,373.7z M676.4,373c0.3,0.2,0.6,0.4,0.9,0.6
									c0.3-0.5,0.6-1,0.8-1.5c0.4-0.8,0.7-1.6,1.5-2.2c1.1-0.9,1.4-2,1.7-2.8c0.1-0.3,0.2-0.6,0.3-0.7c0.2-0.4,0.5-0.6,0.8-0.7
									c0.2-0.1,0.2-0.1,0.2-0.2c0,0,0-0.1-0.1-0.1c-0.2-0.1-0.8,0.1-1.4,0.8c-0.2,0.3-0.3,0.6-0.4,0.9c-0.2,0.6-0.5,1.3-1.7,2.4
									c-0.9,0.8-1.3,1.5-1.6,2.1C677,372.1,676.8,372.5,676.4,373z"/>
							</g>
							<linearGradient id="SVGID_7_" gradientUnits="userSpaceOnUse" x1="675.1615" y1="368.2917" x2="679.5439" y2="368.2917">
								<stop  offset="7.238650e-02" style="stop-color:#FFE567"/>
								<stop  offset="0.9359" style="stop-color:#F4B13B"/>
							</linearGradient>
							<path class="st20" d="M675.7,372.7c0.2,0.1,0.3,0.2,0.5,0.2l3.3-8.9c0,0,0.1-0.3-0.1-0.4c-0.2-0.1-0.3,0.2-0.3,0.2l-4,8.7
								C675.3,372.6,675.5,372.6,675.7,372.7z"/>
							<path class="st17" d="M676.2,373L676.2,373c-0.2-0.1-0.4-0.2-0.5-0.2c-0.2-0.1-0.3-0.1-0.5-0.2l0,0l0,0l4-8.7
								c0-0.1,0.2-0.3,0.3-0.2c0.2,0.1,0.1,0.3,0.1,0.4L676.2,373z M679.4,363.7c-0.2-0.1-0.3,0.2-0.3,0.2l-4,8.6
								c0.2,0.1,0.3,0.1,0.5,0.2c0.2,0.1,0.3,0.1,0.5,0.2l3.3-8.9C679.5,364,679.6,363.7,679.4,363.7z"/>
							<path class="st17" d="M675.7,372.7c0.1,0,0.1,0,0.1,0.1l2-5.2l-2.3,5.1C675.6,372.7,675.6,372.7,675.7,372.7z"/>
							<path class="st17" d="M677,373.4c1-1.4,1.2-3,2.6-4c-1.3,0.6-1.6,2.4-2.9,3.8C676.8,373.3,676.9,373.3,677,373.4z"/>
						</g>
						<g>
							<g>
								<linearGradient id="SVGID_8_" gradientUnits="userSpaceOnUse" x1="678.2776" y1="372.7178" x2="686.8788" y2="372.7178">
									<stop  offset="7.238650e-02" style="stop-color:#FFE567"/>
									<stop  offset="0.9359" style="stop-color:#F4B13B"/>
								</linearGradient>
								<path class="st21" d="M678.3,374.7c0.2,0.3,0.5,0.6,0.7,1c1.3-0.9,2-2.1,3.6-2.6c1.9-0.6,2.5-2,3.1-2.5
									c0.6-0.5,1.2-0.2,1.3-0.5c0-0.3-0.7-0.5-1.7,0.1c-0.9,0.6-0.9,1.5-3.2,2.2C680,373,679.6,374,678.3,374.7z"/>
								<path class="st17" d="M678.9,375.7L678.9,375.7c-0.2-0.4-0.4-0.7-0.7-1l0,0l0,0c0.6-0.3,1-0.6,1.4-0.9
									c0.6-0.5,1.2-1,2.3-1.4c1.5-0.5,2-1,2.5-1.5c0.2-0.2,0.4-0.5,0.8-0.7c0.8-0.5,1.5-0.4,1.7-0.2c0,0,0.1,0.1,0.1,0.1
									c0,0.1-0.1,0.1-0.3,0.1c-0.2,0-0.6,0-1,0.3c-0.2,0.1-0.3,0.3-0.5,0.6c-0.5,0.6-1.2,1.5-2.6,2c-0.9,0.3-1.6,0.9-2.2,1.5
									C679.9,374.9,679.5,375.3,678.9,375.7L678.9,375.7z M678.3,374.7c0.2,0.3,0.4,0.6,0.6,0.9c0.5-0.3,0.9-0.7,1.3-1.1
									c0.7-0.6,1.3-1.2,2.2-1.5c1.4-0.4,2.1-1.3,2.6-2c0.2-0.2,0.4-0.4,0.5-0.6c0.4-0.3,0.7-0.3,1-0.4c0.2,0,0.3,0,0.3-0.1
									c0,0,0-0.1,0-0.1c-0.2-0.2-0.8-0.3-1.6,0.2c-0.3,0.2-0.5,0.4-0.8,0.7c-0.4,0.5-1,1-2.5,1.5c-1.1,0.4-1.7,0.9-2.3,1.4
									C679.3,374.1,678.9,374.4,678.3,374.7z"/>
							</g>
							<linearGradient id="SVGID_9_" gradientUnits="userSpaceOnUse" x1="677.3885" y1="370.8531" x2="684.7794" y2="370.8531">
								<stop  offset="7.238650e-02" style="stop-color:#FFE567"/>
								<stop  offset="0.9359" style="stop-color:#F4B13B"/>
							</linearGradient>
							<path class="st22" d="M677.8,374.1c0.1,0.1,0.3,0.3,0.4,0.4l6.5-7c0,0,0.2-0.2,0.1-0.4c-0.1-0.1-0.4,0.1-0.4,0.1l-7,6.5
								C677.5,373.9,677.7,374,677.8,374.1z"/>
							<path class="st17" d="M678.2,374.6L678.2,374.6c-0.1-0.2-0.3-0.3-0.4-0.4c-0.1-0.1-0.3-0.2-0.4-0.4l0,0l0,0l7-6.5
								c0.1-0.1,0.3-0.2,0.4-0.1c0.1,0.1,0,0.3-0.1,0.4L678.2,374.6z M684.7,367.2c-0.1-0.1-0.3,0.1-0.3,0.1l-7,6.5
								c0.1,0.1,0.3,0.2,0.4,0.4c0.1,0.1,0.2,0.2,0.4,0.4l6.5-7C684.6,367.6,684.8,367.4,684.7,367.2z"/>
							<path class="st17" d="M677.8,374.1c0,0,0.1,0.1,0.1,0.1l3.8-4l-4.1,3.8C677.7,374.1,677.8,374.1,677.8,374.1z"/>
							<path class="st17" d="M678.7,375.3c1.4-0.9,2.3-2.3,3.9-2.7c-1.5,0.1-2.4,1.6-4.1,2.4C678.6,375.1,678.6,375.2,678.7,375.3z"
								/>
						</g>
						<g>
							<g>
								<linearGradient id="SVGID_10_" gradientUnits="userSpaceOnUse" x1="679.4423" y1="376.7341" x2="689.165" y2="376.7341">
									<stop  offset="7.238650e-02" style="stop-color:#FFE567"/>
									<stop  offset="0.9359" style="stop-color:#F4B13B"/>
								</linearGradient>
								<path class="st23" d="M679.4,376.9c0.1,0.4,0.2,0.8,0.2,1.2c1.6-0.3,2.7-1.2,4.3-1c2,0.2,3.1-0.9,3.9-1.2
									c0.8-0.3,1.2,0.3,1.3,0c0.1-0.2-0.5-0.7-1.6-0.6c-1.1,0.2-1.4,1-3.8,0.8C681.7,376,681,376.9,679.4,376.9z"/>
								<path class="st17" d="M679.6,378.1L679.6,378.1c0-0.4-0.1-0.8-0.2-1.2l0,0l0,0c0.6,0,1.1-0.2,1.6-0.4
									c0.7-0.2,1.5-0.5,2.7-0.4c1.6,0.1,2.3-0.2,2.9-0.5c0.3-0.1,0.6-0.3,1-0.3c0.9-0.1,1.5,0.2,1.6,0.4c0,0.1,0,0.1,0,0.1
									c-0.1,0.1-0.2,0.1-0.3,0c-0.2-0.1-0.6-0.2-1,0c-0.2,0.1-0.4,0.2-0.7,0.3c-0.7,0.4-1.7,0.9-3.2,0.8c-1-0.1-1.8,0.2-2.6,0.5
									C680.8,377.8,680.3,378,679.6,378.1L679.6,378.1z M679.5,377c0.1,0.4,0.2,0.7,0.2,1.1c0.6-0.1,1.1-0.3,1.6-0.5
									c0.8-0.3,1.6-0.6,2.6-0.5c1.4,0.1,2.4-0.4,3.1-0.8c0.3-0.1,0.5-0.3,0.7-0.3c0.5-0.1,0.8,0,1,0.1c0.2,0.1,0.3,0.1,0.3,0
									c0,0,0-0.1,0-0.1c-0.1-0.2-0.6-0.6-1.6-0.4c-0.4,0.1-0.7,0.2-1,0.3c-0.6,0.3-1.3,0.6-2.9,0.5c-1.2-0.1-1.9,0.1-2.7,0.4
									C680.6,376.8,680.1,376.9,679.5,377z"/>
							</g>
							<linearGradient id="SVGID_11_" gradientUnits="userSpaceOnUse" x1="678.9702" y1="374.6011" x2="688.2702" y2="374.6011">
								<stop  offset="7.238650e-02" style="stop-color:#FFE567"/>
								<stop  offset="0.9359" style="stop-color:#F4B13B"/>
							</linearGradient>
							<path class="st24" d="M679.2,376.3c0.1,0.2,0.1,0.3,0.2,0.5l8.7-4c0,0,0.3-0.1,0.2-0.3c-0.1-0.2-0.4-0.1-0.4-0.1l-8.9,3.3
								C679.1,375.9,679.1,376.1,679.2,376.3z"/>
							<path class="st17" d="M679.4,376.8L679.4,376.8c-0.1-0.2-0.1-0.4-0.2-0.5c-0.1-0.2-0.1-0.3-0.2-0.5l0,0l0,0l8.9-3.3
								c0.1,0,0.3-0.1,0.4,0.1c0.1,0.2-0.1,0.3-0.2,0.3L679.4,376.8z M688.2,372.5c-0.1-0.2-0.3-0.1-0.3-0.1l-8.9,3.3
								c0.1,0.2,0.2,0.3,0.2,0.5c0.1,0.2,0.1,0.3,0.2,0.5l8.6-3.9C688,372.8,688.3,372.7,688.2,372.5z"/>
							<path class="st17" d="M679.2,376.3c0,0.1,0,0.1,0.1,0.2l5.1-2.3l-5.2,2C679.2,376.2,679.2,376.2,679.2,376.3z"/>
							<path class="st17" d="M679.6,377.7c1.7-0.3,3-1.2,4.7-1c-1.4-0.5-2.9,0.5-4.7,0.7C679.6,377.4,679.6,377.5,679.6,377.7z"/>
						</g>
						<g>
							<g>
								<linearGradient id="SVGID_12_" gradientUnits="userSpaceOnUse" x1="679.4119" y1="380.9059" x2="689.0317" y2="380.9059">
									<stop  offset="7.238650e-02" style="stop-color:#FFE567"/>
									<stop  offset="0.9359" style="stop-color:#F4B13B"/>
								</linearGradient>
								<path class="st25" d="M679.6,379.5c0,0.4-0.1,0.8-0.2,1.2c1.5,0.3,2.9,0,4.3,0.7c1.8,0.9,3.2,0.4,4,0.4s1,0.7,1.2,0.6
									c0.2-0.2-0.2-0.9-1.3-1.1c-1.1-0.3-1.7,0.4-3.8-0.7C682.1,379.5,681.1,380,679.6,379.5z"/>
								<path class="st17" d="M679.4,380.6L679.4,380.6c0.1-0.4,0.2-0.8,0.2-1.2l0,0l0,0c0.6,0.2,1.1,0.3,1.6,0.3
									c0.8,0.1,1.5,0.1,2.6,0.7c1.4,0.7,2.2,0.7,2.8,0.7c0.3,0,0.7,0,1,0.1c0.9,0.2,1.3,0.7,1.3,1c0,0.1,0,0.1-0.1,0.1
									c-0.1,0.1-0.2,0-0.3-0.1c-0.2-0.2-0.4-0.4-0.9-0.4c-0.2,0-0.5,0-0.8,0c-0.8,0.1-2,0.2-3.2-0.5c-0.9-0.5-1.7-0.5-2.6-0.5
									C680.6,380.8,680,380.8,679.4,380.6L679.4,380.6z M679.7,379.5c0,0.4-0.1,0.7-0.2,1.1c0.6,0.1,1.1,0.1,1.7,0.2
									c0.9,0,1.7,0.1,2.6,0.5c1.3,0.7,2.4,0.5,3.2,0.5c0.3,0,0.6-0.1,0.8,0c0.5,0,0.8,0.3,0.9,0.4c0.1,0.1,0.2,0.2,0.3,0.1
									c0,0,0-0.1,0-0.1c0-0.2-0.4-0.8-1.3-1c-0.4-0.1-0.7-0.1-1-0.1c-0.7,0-1.4,0.1-2.8-0.7c-1.1-0.5-1.8-0.6-2.6-0.7
									C680.8,379.7,680.2,379.7,679.7,379.5z"/>
							</g>
							<linearGradient id="SVGID_13_" gradientUnits="userSpaceOnUse" x1="679.6627" y1="378.7612" x2="689.4785" y2="378.7612">
								<stop  offset="7.238650e-02" style="stop-color:#FFE567"/>
								<stop  offset="0.9359" style="stop-color:#F4B13B"/>
							</linearGradient>
							<path class="st26" d="M679.7,378.8c0,0.2,0,0.4,0,0.6l9.5-0.3c0,0,0.3,0,0.3-0.2c0-0.2-0.3-0.2-0.3-0.2l-9.5-0.4
								C679.7,378.4,679.7,378.6,679.7,378.8z"/>
							<path class="st17" d="M679.6,379.3L679.6,379.3c0-0.2,0-0.4,0-0.6c0-0.2,0-0.4,0-0.6l0,0l0,0l9.5,0.4c0.1,0,0.3,0,0.3,0.2
								c0,0.2-0.2,0.2-0.3,0.2L679.6,379.3z M689.5,378.8c0-0.2-0.3-0.2-0.3-0.2l-9.5-0.4c0,0.2,0,0.4,0,0.5c0,0.2,0,0.3,0,0.5
								l9.5-0.3C689.2,379,689.5,379,689.5,378.8z"/>
							<path class="st17" d="M679.7,378.8c0,0.1,0,0.1,0,0.2l5.6-0.2l-5.6-0.2C679.7,378.7,679.7,378.7,679.7,378.8z"/>
							<path class="st17" d="M679.5,380.2c1.6,0.4,3.2,0,4.7,0.8c-1.1-1-2.8-0.6-4.6-1.2C679.6,380,679.5,380.1,679.5,380.2z"/>
						</g>
						<g>
							<g>
								<linearGradient id="SVGID_14_" gradientUnits="userSpaceOnUse" x1="678.2028" y1="385.0046" x2="686.5171" y2="385.0046">
									<stop  offset="7.238650e-02" style="stop-color:#FFE567"/>
									<stop  offset="0.9359" style="stop-color:#F4B13B"/>
								</linearGradient>
								<path class="st27" d="M678.9,381.9c-0.2,0.3-0.4,0.7-0.7,1c1.3,0.9,2.7,1.1,3.7,2.3c1.3,1.5,2.8,1.6,3.5,1.9
									c0.7,0.4,0.7,1.1,0.9,1c0.2-0.1,0.2-0.9-0.7-1.5c-0.9-0.7-1.7-0.3-3.3-2.2C681.1,382.8,680,382.9,678.9,381.9z"/>
								<path class="st17" d="M678.2,382.9L678.2,382.9c0.3-0.3,0.5-0.6,0.7-1l0,0l0,0c0.5,0.4,0.9,0.7,1.4,0.9
									c0.7,0.3,1.4,0.7,2.2,1.6c1,1.2,1.7,1.5,2.3,1.7c0.3,0.1,0.6,0.2,0.9,0.5c0.7,0.6,0.9,1.2,0.8,1.5c0,0.1-0.1,0.1-0.1,0.1
									c-0.1,0-0.2-0.1-0.3-0.2c-0.1-0.2-0.3-0.5-0.7-0.7c-0.2-0.1-0.4-0.2-0.7-0.3c-0.8-0.2-1.9-0.5-2.8-1.7
									c-0.6-0.8-1.4-1.1-2.2-1.5C679.2,383.5,678.7,383.2,678.2,382.9L678.2,382.9z M678.9,381.9c-0.2,0.3-0.4,0.6-0.6,0.9
									c0.5,0.3,1,0.6,1.5,0.8c0.8,0.4,1.6,0.7,2.2,1.5c0.9,1.1,2,1.4,2.8,1.7c0.3,0.1,0.6,0.2,0.7,0.3c0.4,0.2,0.6,0.5,0.7,0.8
									c0.1,0.2,0.1,0.2,0.2,0.2c0,0,0.1,0,0.1-0.1c0.1-0.2-0.1-0.8-0.8-1.4c-0.3-0.2-0.6-0.3-0.9-0.4c-0.6-0.2-1.3-0.5-2.4-1.7
									c-0.8-0.9-1.5-1.3-2.1-1.6C679.8,382.6,679.3,382.3,678.9,381.9z"/>
							</g>
							<linearGradient id="SVGID_15_" gradientUnits="userSpaceOnUse" x1="678.9367" y1="382.935" x2="688.2228" y2="382.935">
								<stop  offset="7.238650e-02" style="stop-color:#FFE567"/>
								<stop  offset="0.9359" style="stop-color:#F4B13B"/>
							</linearGradient>
							<path class="st28" d="M679.2,381.3c-0.1,0.2-0.2,0.3-0.2,0.5l8.9,3.3c0,0,0.3,0.1,0.4-0.1c0.1-0.2-0.2-0.3-0.2-0.3l-8.6-4
								C679.3,380.9,679.2,381.1,679.2,381.3z"/>
							<path class="st17" d="M678.9,381.8L678.9,381.8c0.1-0.2,0.2-0.4,0.2-0.5s0.1-0.3,0.2-0.5l0,0l0,0l8.6,4
								c0.1,0,0.3,0.2,0.2,0.3c-0.1,0.2-0.3,0.1-0.4,0.1L678.9,381.8z M688.2,385c0.1-0.2-0.2-0.3-0.2-0.3l-8.6-4
								c-0.1,0.2-0.1,0.3-0.2,0.5c-0.1,0.2-0.1,0.3-0.2,0.5l8.9,3.3C687.9,385.1,688.1,385.2,688.2,385z"/>
							<path class="st17" d="M679.2,381.3c0,0.1,0,0.1-0.1,0.1l5.2,2l-5.1-2.3C679.2,381.2,679.2,381.2,679.2,381.3z"/>
							<path class="st17" d="M678.5,382.5c1.4,1,3,1.2,4,2.6c-0.6-1.3-2.4-1.6-3.8-2.9C678.6,382.3,678.5,382.4,678.5,382.5z"/>
						</g>
						<g>
							<g>
								<linearGradient id="SVGID_16_" gradientUnits="userSpaceOnUse" x1="676.2241" y1="388.1513" x2="682.062" y2="388.1513">
									<stop  offset="7.238650e-02" style="stop-color:#FFE567"/>
									<stop  offset="0.9359" style="stop-color:#F4B13B"/>
								</linearGradient>
								<path class="st29" d="M677.2,383.8c-0.3,0.2-0.6,0.5-1,0.6c0.9,1.3,2.1,2,2.6,3.6c0.6,1.9,2,2.5,2.5,3.1
									c0.5,0.6,0.2,1.2,0.5,1.3c0.3,0,0.5-0.7-0.1-1.7c-0.6-1-1.5-0.9-2.2-3.2C678.9,385.6,677.9,385.2,677.2,383.8z"/>
								<path class="st17" d="M676.2,384.5L676.2,384.5c0.4-0.2,0.7-0.4,1-0.7l0,0l0,0c0.3,0.6,0.6,1,0.9,1.4c0.5,0.6,1,1.2,1.4,2.3
									c0.5,1.5,1,2,1.5,2.5c0.2,0.2,0.5,0.4,0.7,0.8c0.5,0.8,0.4,1.5,0.2,1.7c0,0-0.1,0.1-0.1,0.1c-0.1,0-0.1-0.1-0.1-0.3
									c0-0.2,0-0.6-0.3-1c-0.1-0.2-0.3-0.3-0.6-0.5c-0.6-0.5-1.5-1.2-2-2.6c-0.3-0.9-0.9-1.6-1.5-2.2
									C676.9,385.4,676.5,385,676.2,384.5L676.2,384.5z M677.2,383.9c-0.3,0.2-0.6,0.4-0.9,0.6c0.3,0.5,0.7,0.9,1.1,1.3
									c0.6,0.7,1.2,1.3,1.5,2.2c0.4,1.4,1.3,2.1,1.9,2.6c0.2,0.2,0.4,0.4,0.6,0.5c0.3,0.4,0.3,0.7,0.3,1c0,0.2,0,0.3,0.1,0.3
									c0,0,0.1,0,0.1,0c0.2-0.2,0.3-0.8-0.2-1.6c-0.2-0.3-0.4-0.5-0.7-0.8c-0.5-0.5-1-1-1.5-2.5c-0.4-1.1-0.9-1.7-1.4-2.3
									C677.8,384.8,677.5,384.4,677.2,383.9z"/>
							</g>
							<linearGradient id="SVGID_17_" gradientUnits="userSpaceOnUse" x1="677.3291" y1="386.6611" x2="684.6918" y2="386.6611">
								<stop  offset="7.238650e-02" style="stop-color:#FFE567"/>
								<stop  offset="0.9359" style="stop-color:#F4B13B"/>
							</linearGradient>
							<path class="st30" d="M677.7,383.4c-0.1,0.1-0.3,0.3-0.4,0.4l7,6.5c0,0,0.2,0.2,0.4,0.1c0.1-0.1-0.1-0.4-0.1-0.4l-6.5-7
								C678,383.1,677.9,383.2,677.7,383.4z"/>
							<path class="st17" d="M677.3,383.7L677.3,383.7c0.2-0.1,0.3-0.3,0.4-0.4c0.1-0.1,0.2-0.3,0.4-0.4l0,0l0,0l6.5,7
								c0.1,0.1,0.2,0.3,0.1,0.4c-0.1,0.1-0.3,0-0.4-0.1L677.3,383.7z M684.6,390.3c0.1-0.1-0.1-0.3-0.1-0.3l-6.4-7
								c-0.1,0.1-0.2,0.3-0.4,0.4c-0.1,0.1-0.2,0.2-0.4,0.4l6.9,6.5C684.3,390.2,684.5,390.4,684.6,390.3z"/>
							<path class="st17" d="M677.7,383.4c0,0-0.1,0.1-0.1,0.1l4,3.8l-3.8-4.1C677.8,383.3,677.8,383.3,677.7,383.4z"/>
							<path class="st17" d="M676.6,384.3c0.9,1.4,2.3,2.3,2.7,3.9c-0.1-1.5-1.6-2.4-2.4-4.1C676.8,384.2,676.7,384.2,676.6,384.3z"
								/>
						</g>
						<g>
							<g>
								<linearGradient id="SVGID_18_" gradientUnits="userSpaceOnUse" x1="673.7778" y1="389.8679" x2="676.4706" y2="389.8679">
									<stop  offset="7.238650e-02" style="stop-color:#FFE567"/>
									<stop  offset="0.9359" style="stop-color:#F4B13B"/>
								</linearGradient>
								<path class="st31" d="M674.9,385c-0.4,0.1-0.8,0.2-1.2,0.2c0.3,1.6,1.2,2.7,1,4.3c-0.2,2,0.9,3.1,1.1,3.9
									c0.2,0.8-0.3,1.2-0.1,1.3s0.7-0.5,0.6-1.6c-0.2-1.1-1-1.4-0.8-3.8C675.8,387.2,675,386.5,674.9,385z"/>
								<path class="st17" d="M673.8,385.2L673.8,385.2c0.4,0,0.8-0.1,1.2-0.2l0,0l0,0c0,0.6,0.2,1.1,0.4,1.6
									c0.2,0.7,0.5,1.5,0.4,2.7c-0.1,1.6,0.2,2.3,0.5,2.9c0.1,0.3,0.3,0.6,0.3,1c0.1,0.9-0.2,1.5-0.4,1.6c-0.1,0-0.1,0-0.1,0
									c-0.1-0.1-0.1-0.2,0-0.3c0.1-0.2,0.2-0.6,0.1-1c-0.1-0.2-0.2-0.4-0.3-0.7c-0.4-0.7-0.9-1.7-0.8-3.2c0.1-1-0.2-1.8-0.5-2.6
									C674.1,386.4,673.9,385.8,673.8,385.2L673.8,385.2z M674.9,385c-0.4,0.1-0.7,0.2-1.1,0.2c0.1,0.6,0.3,1.1,0.5,1.6
									c0.3,0.8,0.6,1.6,0.5,2.6c-0.1,1.4,0.4,2.4,0.8,3.1c0.1,0.3,0.3,0.5,0.3,0.7c0.1,0.5,0,0.8-0.1,1c-0.1,0.2-0.1,0.3,0,0.3
									c0,0,0.1,0,0.1,0c0.2-0.1,0.6-0.6,0.4-1.6c-0.1-0.4-0.2-0.7-0.3-1c-0.3-0.6-0.6-1.3-0.5-2.9c0.1-1.2-0.1-1.9-0.4-2.7
									C675.1,386.1,674.9,385.7,674.9,385z"/>
							</g>
							<linearGradient id="SVGID_19_" gradientUnits="userSpaceOnUse" x1="675.0851" y1="389.1894" x2="679.4295" y2="389.1894">
								<stop  offset="7.238650e-02" style="stop-color:#FFE567"/>
								<stop  offset="0.9359" style="stop-color:#F4B13B"/>
							</linearGradient>
							<path class="st32" d="M675.6,384.8c-0.2,0.1-0.4,0.1-0.5,0.2l3.9,8.7c0,0,0.1,0.3,0.3,0.2c0.2-0.1,0.1-0.4,0.1-0.4l-3.3-8.9
								C676,384.6,675.8,384.7,675.6,384.8z"/>
							<path class="st17" d="M675.1,384.9L675.1,384.9c0.2-0.1,0.4-0.1,0.5-0.2c0.2-0.1,0.3-0.1,0.5-0.2l0,0l0,0l3.3,8.9
								c0,0.1,0.1,0.3-0.1,0.4c-0.2,0.1-0.3-0.1-0.3-0.2L675.1,384.9z M679.3,393.8c0.2-0.1,0.1-0.3,0.1-0.3l-3.3-8.9
								c-0.2,0.1-0.3,0.2-0.5,0.2c-0.2,0.1-0.3,0.1-0.5,0.2l3.9,8.6C679,393.6,679.2,393.9,679.3,393.8z"/>
							<path class="st17" d="M675.6,384.8c-0.1,0-0.1,0-0.2,0.1l2.3,5.1l-2-5.2C675.7,384.7,675.7,384.8,675.6,384.8z"/>
							<path class="st17" d="M674.2,385.2c0.3,1.7,1.2,3,1,4.7c0.5-1.4-0.5-2.9-0.7-4.7C674.4,385.1,674.3,385.2,674.2,385.2z"/>
						</g>
						<g>
							<g>
								<linearGradient id="SVGID_20_" gradientUnits="userSpaceOnUse" x1="669.5108" y1="389.7751" x2="672.3919" y2="389.7751">
									<stop  offset="7.238650e-02" style="stop-color:#FFE567"/>
									<stop  offset="0.9359" style="stop-color:#F4B13B"/>
								</linearGradient>
								<path class="st33" d="M672.4,385.2c-0.4,0-0.8-0.1-1.2-0.2c-0.3,1.5,0,2.9-0.7,4.3c-0.9,1.8-0.4,3.2-0.4,4
									c-0.1,0.8-0.7,1-0.6,1.2s0.9-0.2,1.1-1.3c0.3-1.1-0.4-1.7,0.7-3.8C672.4,387.6,671.9,386.6,672.4,385.2z"/>
								<path class="st17" d="M671.2,384.9L671.2,384.9c0.4,0.1,0.8,0.2,1.2,0.2l0,0l0,0c-0.2,0.6-0.3,1.1-0.3,1.6
									c-0.1,0.8-0.1,1.5-0.7,2.6c-0.7,1.4-0.7,2.2-0.7,2.8c0,0.3,0,0.7-0.1,1c-0.2,0.9-0.8,1.3-1,1.3c-0.1,0-0.1,0-0.1-0.1
									c-0.1-0.1,0-0.2,0.1-0.3c0.2-0.2,0.4-0.4,0.4-0.9c0-0.2,0-0.5,0-0.8c-0.1-0.8-0.2-2,0.5-3.2c0.5-0.9,0.5-1.7,0.5-2.6
									C671.1,386.1,671.1,385.6,671.2,384.9L671.2,384.9z M672.4,385.2c-0.4,0-0.7-0.1-1.1-0.2c-0.1,0.6-0.1,1.1-0.2,1.7
									c0,0.9-0.1,1.7-0.5,2.6c-0.7,1.3-0.6,2.4-0.5,3.2c0,0.3,0.1,0.6,0,0.8c0,0.5-0.3,0.8-0.4,0.9c-0.1,0.1-0.2,0.2-0.1,0.3
									c0,0,0.1,0,0.1,0c0.2,0,0.8-0.4,1-1.3c0.1-0.4,0.1-0.7,0.1-1c0-0.7-0.1-1.4,0.7-2.8c0.6-1.1,0.6-1.8,0.7-2.6
									C672.1,386.3,672.2,385.8,672.4,385.2z"/>
							</g>
							<linearGradient id="SVGID_21_" gradientUnits="userSpaceOnUse" x1="672.5475" y1="390.129" x2="673.6648" y2="390.129">
								<stop  offset="7.238650e-02" style="stop-color:#FFE567"/>
								<stop  offset="0.9359" style="stop-color:#F4B13B"/>
							</linearGradient>
							<path class="st34" d="M673.1,385.2c-0.2,0-0.4,0-0.6,0l0.3,9.5c0,0,0,0.3,0.2,0.3c0.2,0,0.2-0.3,0.2-0.3l0.4-9.5
								C673.5,385.2,673.3,385.2,673.1,385.2z"/>
							<path class="st17" d="M672.5,385.2L672.5,385.2c0.2,0,0.4,0,0.6,0c0.2,0,0.4,0,0.6,0l0,0l0,0l-0.4,9.5c0,0.1,0,0.3-0.2,0.3
								c-0.2,0-0.2-0.2-0.2-0.3L672.5,385.2z M673.1,395c0.2,0,0.2-0.3,0.2-0.3l0.4-9.5c-0.2,0-0.4,0-0.5,0c-0.2,0-0.3,0-0.5,0
								l0.3,9.5C672.9,394.7,672.9,395,673.1,395z"/>
							<path class="st17" d="M673.1,385.2c-0.1,0-0.1,0-0.2,0l0.1,5.6l0.2-5.6C673.2,385.2,673.2,385.2,673.1,385.2z"/>
							<path class="st17" d="M671.7,385.1c-0.4,1.6,0,3.2-0.9,4.7c1-1.1,0.6-2.8,1.2-4.6C671.9,385.1,671.8,385.1,671.7,385.1z"/>
						</g>
						<g>
							<g>
								<linearGradient id="SVGID_22_" gradientUnits="userSpaceOnUse" x1="663.7471" y1="387.9046" x2="669.9656" y2="387.9046">
									<stop  offset="7.238650e-02" style="stop-color:#FFE567"/>
									<stop  offset="0.9359" style="stop-color:#F4B13B"/>
								</linearGradient>
								<path class="st35" d="M670,384.4c-0.3-0.2-0.7-0.4-1-0.7c-0.9,1.3-1.1,2.7-2.3,3.7c-1.5,1.3-1.6,2.8-1.9,3.5
									c-0.4,0.7-1.1,0.7-1,0.9c0.1,0.2,0.9,0.2,1.5-0.7c0.7-0.9,0.3-1.7,2.2-3.3C669,386.6,668.9,385.5,670,384.4z"/>
								<path class="st17" d="M669,383.7L669,383.7c0.3,0.3,0.6,0.5,1,0.7l0,0l0,0c-0.4,0.5-0.7,0.9-0.9,1.4
									c-0.3,0.7-0.7,1.4-1.6,2.1c-1.2,1-1.5,1.7-1.7,2.3c-0.1,0.3-0.2,0.6-0.5,0.9c-0.6,0.7-1.2,0.9-1.5,0.8
									c-0.1,0-0.1-0.1-0.1-0.1c0-0.1,0.1-0.2,0.2-0.2c0.2-0.1,0.5-0.3,0.8-0.7c0.1-0.2,0.2-0.4,0.3-0.7c0.2-0.8,0.6-1.9,1.7-2.8
									c0.8-0.6,1.1-1.4,1.5-2.2C668.4,384.8,668.6,384.2,669,383.7L669,383.7z M669.9,384.4c-0.3-0.2-0.6-0.4-0.9-0.6
									c-0.3,0.5-0.6,1-0.8,1.5c-0.4,0.8-0.7,1.6-1.5,2.2c-1.1,0.9-1.4,2-1.7,2.8c-0.1,0.3-0.2,0.6-0.3,0.7
									c-0.2,0.4-0.6,0.6-0.8,0.7c-0.2,0.1-0.2,0.1-0.2,0.2c0,0,0,0.1,0.1,0.1c0.2,0.1,0.8-0.1,1.4-0.8c0.2-0.3,0.3-0.6,0.4-0.9
									c0.2-0.6,0.5-1.3,1.7-2.4c0.9-0.8,1.3-1.5,1.6-2.1C669.3,385.3,669.5,384.9,669.9,384.4z"/>
							</g>
							<linearGradient id="SVGID_23_" gradientUnits="userSpaceOnUse" x1="666.7133" y1="389.1288" x2="671.1337" y2="389.1288">
								<stop  offset="7.238650e-02" style="stop-color:#FFE567"/>
								<stop  offset="0.9359" style="stop-color:#F4B13B"/>
							</linearGradient>
							<path class="st36" d="M670.6,384.7c-0.2-0.1-0.3-0.2-0.5-0.2l-3.4,8.9c0,0-0.1,0.3,0.1,0.4c0.2,0.1,0.3-0.2,0.3-0.2l4-8.6
								C671,384.9,670.8,384.8,670.6,384.7z"/>
							<path class="st17" d="M670.1,384.5L670.1,384.5c0.2,0.1,0.4,0.2,0.5,0.3c0.2,0.1,0.3,0.1,0.5,0.2l0,0l0,0l-4,8.6
								c0,0.1-0.2,0.3-0.3,0.2c-0.2-0.1-0.1-0.3-0.1-0.4L670.1,384.5z M666.8,393.7c0.2,0.1,0.3-0.2,0.3-0.2l4-8.6
								c-0.2-0.1-0.3-0.1-0.5-0.2c-0.2-0.1-0.3-0.1-0.5-0.2l-3.3,8.9C666.8,393.4,666.7,393.7,666.8,393.7z"/>
							<path class="st17" d="M670.6,384.7c-0.1,0-0.1,0-0.1-0.1l-2,5.2l2.3-5.1C670.7,384.8,670.7,384.8,670.6,384.7z"/>
							<path class="st17" d="M669.3,384c-1,1.4-1.2,3-2.6,4c1.3-0.6,1.6-2.4,2.9-3.8C669.5,384.1,669.4,384.1,669.3,384z"/>
						</g>
						<g>
							<g>
								<linearGradient id="SVGID_24_" gradientUnits="userSpaceOnUse" x1="659.4056" y1="384.6815" x2="668.0271" y2="384.6815">
									<stop  offset="7.238650e-02" style="stop-color:#FFE567"/>
									<stop  offset="0.9359" style="stop-color:#F4B13B"/>
								</linearGradient>
								<path class="st37" d="M668,382.8c-0.2-0.3-0.5-0.6-0.6-1c-1.3,0.9-2,2.1-3.6,2.6c-1.9,0.6-2.5,2-3.1,2.5
									c-0.6,0.5-1.2,0.2-1.3,0.5c0,0.3,0.7,0.5,1.7-0.1c1-0.6,0.9-1.5,3.2-2.2C666.3,384.4,666.7,383.4,668,382.8z"/>
								<path class="st17" d="M667.4,381.7L667.4,381.7c0.2,0.4,0.4,0.7,0.7,1l0,0l0,0c-0.6,0.3-1,0.6-1.4,0.9
									c-0.6,0.5-1.2,1-2.3,1.4c-1.5,0.5-2,1-2.5,1.5c-0.2,0.2-0.4,0.5-0.8,0.7c-0.8,0.5-1.5,0.4-1.7,0.2c0,0-0.1-0.1-0.1-0.1
									c0-0.1,0.1-0.1,0.3-0.1c0.2,0,0.6,0,1-0.3c0.2-0.1,0.3-0.3,0.5-0.6c0.5-0.6,1.2-1.5,2.6-2c0.9-0.3,1.6-0.9,2.2-1.5
									C666.4,382.5,666.9,382.1,667.4,381.7L667.4,381.7z M668,382.7c-0.2-0.3-0.4-0.6-0.6-0.9c-0.5,0.3-0.9,0.7-1.3,1.1
									c-0.7,0.6-1.3,1.2-2.2,1.5c-1.4,0.4-2.1,1.3-2.6,1.9c-0.2,0.2-0.4,0.4-0.5,0.6c-0.4,0.3-0.7,0.3-1,0.3c-0.2,0-0.3,0-0.3,0.1
									c0,0,0,0.1,0,0.1c0.2,0.2,0.8,0.3,1.6-0.2c0.3-0.2,0.5-0.4,0.8-0.7c0.5-0.5,1-1,2.5-1.5c1.1-0.4,1.7-0.9,2.3-1.4
									C667.1,383.3,667.4,383,668,382.7z"/>
							</g>
							<linearGradient id="SVGID_25_" gradientUnits="userSpaceOnUse" x1="661.4932" y1="386.5515" x2="668.9122" y2="386.5515">
								<stop  offset="7.238650e-02" style="stop-color:#FFE567"/>
								<stop  offset="0.9359" style="stop-color:#F4B13B"/>
							</linearGradient>
							<path class="st38" d="M668.5,383.3c-0.1-0.1-0.3-0.3-0.4-0.4l-6.5,6.9c0,0-0.2,0.2-0.1,0.4c0.1,0.1,0.4-0.1,0.4-0.1l7-6.4
								C668.8,383.6,668.6,383.4,668.5,383.3z"/>
							<path class="st17" d="M668.1,382.8L668.1,382.8c0.1,0.2,0.3,0.3,0.4,0.4s0.3,0.2,0.4,0.4l0,0l0,0l-7,6.4
								c-0.1,0.1-0.3,0.2-0.4,0.1c-0.1-0.1,0-0.3,0.1-0.4L668.1,382.8z M661.6,390.2c0.1,0.1,0.3-0.1,0.3-0.1l7-6.4
								c-0.1-0.1-0.3-0.2-0.4-0.4c-0.1-0.1-0.2-0.2-0.4-0.4l-6.5,6.9C661.6,389.8,661.4,390,661.6,390.2z"/>
							<path class="st17" d="M668.5,383.3c0,0-0.1-0.1-0.1-0.1l-3.8,4l4.1-3.8C668.6,383.4,668.5,383.3,668.5,383.3z"/>
							<path class="st17" d="M667.6,382.1c-1.4,0.9-2.3,2.3-3.9,2.7c1.5-0.1,2.4-1.6,4.1-2.4C667.7,382.3,667.7,382.2,667.6,382.1z"
								/>
						</g>
						<g>
							<g>
								<linearGradient id="SVGID_26_" gradientUnits="userSpaceOnUse" x1="657.1452" y1="380.6601" x2="666.8724" y2="380.6601">
									<stop  offset="7.238650e-02" style="stop-color:#FFE567"/>
									<stop  offset="0.9359" style="stop-color:#F4B13B"/>
								</linearGradient>
								<path class="st39" d="M666.9,380.5c-0.1-0.4-0.2-0.8-0.2-1.2c-1.6,0.3-2.7,1.1-4.3,1c-2-0.2-3.1,0.9-3.9,1.1
									c-0.8,0.2-1.2-0.3-1.3-0.1s0.5,0.7,1.6,0.6c1.1-0.2,1.4-1,3.8-0.8C664.6,381.4,665.4,380.6,666.9,380.5z"/>
								<path class="st17" d="M666.7,379.3L666.7,379.3c0,0.4,0.1,0.8,0.2,1.2l0,0l0,0c-0.6,0-1.1,0.2-1.6,0.3
									c-0.7,0.2-1.5,0.5-2.7,0.4c-1.6-0.1-2.3,0.2-2.9,0.4c-0.3,0.1-0.6,0.3-1,0.3c-0.9,0.1-1.5-0.2-1.6-0.5c0-0.1,0-0.1,0-0.1
									c0.1-0.1,0.2-0.1,0.3,0c0.2,0.1,0.6,0.2,1,0.1c0.2-0.1,0.4-0.2,0.7-0.3c0.7-0.4,1.7-0.9,3.2-0.8c1,0.1,1.8-0.2,2.6-0.5
									C665.5,379.6,666,379.4,666.7,379.3L666.7,379.3z M666.8,380.5c-0.1-0.4-0.2-0.7-0.2-1.1c-0.6,0.1-1.1,0.3-1.6,0.5
									c-0.8,0.3-1.6,0.6-2.6,0.5c-1.4-0.1-2.4,0.4-3.2,0.8c-0.3,0.1-0.5,0.3-0.7,0.3c-0.5,0.1-0.8,0-1-0.1c-0.2-0.1-0.3-0.1-0.3,0
									c0,0,0,0.1,0,0.1c0.1,0.2,0.6,0.6,1.6,0.4c0.4-0.1,0.7-0.2,1-0.3c0.6-0.3,1.3-0.6,2.9-0.5c1.2,0.1,1.9-0.1,2.7-0.4
									C665.7,380.6,666.2,380.5,666.8,380.5z"/>
							</g>
							<linearGradient id="SVGID_27_" gradientUnits="userSpaceOnUse" x1="658.0255" y1="382.7933" x2="667.3392" y2="382.7933">
								<stop  offset="7.238650e-02" style="stop-color:#FFE567"/>
								<stop  offset="0.9359" style="stop-color:#F4B13B"/>
							</linearGradient>
							<path class="st40" d="M667.1,381.2c-0.1-0.2-0.1-0.4-0.2-0.5l-8.7,3.9c0,0-0.3,0.1-0.2,0.3c0.1,0.2,0.4,0.1,0.4,0.1l8.9-3.3
								C667.3,381.5,667.2,381.3,667.1,381.2z"/>
							<path class="st17" d="M666.9,380.6L666.9,380.6c0.1,0.2,0.1,0.4,0.2,0.5c0.1,0.2,0.1,0.3,0.2,0.5l0,0l0,0l-8.9,3.3
								c-0.1,0-0.3,0.1-0.4-0.1c-0.1-0.2,0.1-0.3,0.2-0.3L666.9,380.6z M658.1,384.8c0.1,0.2,0.3,0.1,0.3,0.1l8.9-3.2
								c-0.1-0.2-0.2-0.3-0.2-0.5c-0.1-0.2-0.1-0.3-0.2-0.5l-8.7,3.9C658.2,384.6,658,384.7,658.1,384.8z"/>
							<path class="st17" d="M667.1,381.2c0-0.1,0-0.1-0.1-0.2l-5.1,2.3l5.2-1.9C667.1,381.3,667.1,381.2,667.1,381.2z"/>
							<path class="st17" d="M666.7,379.7c-1.7,0.3-3,1.2-4.7,1c1.4,0.5,2.9-0.5,4.7-0.7C666.8,380,666.7,379.9,666.7,379.7z"/>
						</g>
						<g>
							<g>
								<linearGradient id="SVGID_28_" gradientUnits="userSpaceOnUse" x1="657.3062" y1="376.4862" x2="666.9189" y2="376.4862">
									<stop  offset="7.238650e-02" style="stop-color:#FFE567"/>
									<stop  offset="0.9359" style="stop-color:#F4B13B"/>
								</linearGradient>
								<path class="st41" d="M666.7,377.9c0-0.4,0.1-0.8,0.2-1.2c-1.5-0.3-2.9,0-4.3-0.7c-1.8-0.9-3.2-0.4-4-0.4
									c-0.8-0.1-1-0.7-1.2-0.6s0.2,0.9,1.2,1.1c1.1,0.3,1.7-0.4,3.8,0.8C664.3,377.9,665.3,377.4,666.7,377.9z"/>
								<path class="st17" d="M666.9,376.8L666.9,376.8c-0.1,0.4-0.2,0.8-0.2,1.2l0,0l0,0c-0.6-0.2-1.1-0.3-1.6-0.3
									c-0.8-0.1-1.5-0.1-2.6-0.7c-1.4-0.7-2.2-0.7-2.8-0.7c-0.3,0-0.7,0-1-0.1c-0.9-0.2-1.3-0.8-1.3-1c0-0.1,0-0.1,0.1-0.1
									c0.1-0.1,0.2,0,0.3,0.1c0.2,0.2,0.4,0.4,0.9,0.4c0.2,0,0.5,0,0.8,0c0.8-0.1,2-0.2,3.2,0.5c0.9,0.5,1.7,0.5,2.6,0.5
									C665.8,376.6,666.3,376.6,666.9,376.8L666.9,376.8z M666.7,377.9c0-0.4,0.1-0.7,0.2-1.1c-0.6-0.1-1.1-0.2-1.7-0.2
									c-0.9,0-1.7-0.1-2.6-0.5c-1.3-0.7-2.4-0.6-3.2-0.5c-0.3,0-0.6,0.1-0.8,0c-0.5,0-0.8-0.3-0.9-0.4c-0.1-0.1-0.2-0.2-0.3-0.1
									c0,0,0,0.1,0,0.1c0,0.2,0.4,0.8,1.3,1c0.4,0.1,0.7,0.1,1,0.1c0.7,0,1.4-0.1,2.8,0.7c1.1,0.6,1.8,0.6,2.6,0.7
									C665.6,377.7,666.1,377.7,666.7,377.9z"/>
							</g>
							<linearGradient id="SVGID_29_" gradientUnits="userSpaceOnUse" x1="656.8443" y1="378.6511" x2="666.6624" y2="378.6511">
								<stop  offset="7.238650e-02" style="stop-color:#FFE567"/>
								<stop  offset="0.9359" style="stop-color:#F4B13B"/>
							</linearGradient>
							<path class="st42" d="M666.6,378.7c0-0.2,0-0.4,0-0.6l-9.5,0.3c0,0-0.3,0-0.3,0.2c0,0.2,0.3,0.2,0.3,0.2l9.5,0.4
								C666.6,379,666.6,378.8,666.6,378.7z"/>
							<path class="st17" d="M666.7,378.1L666.7,378.1c0,0.2,0,0.4,0,0.6c0,0.2,0,0.4,0,0.6l0,0l0,0l-9.5-0.4c-0.1,0-0.3,0-0.3-0.2
								c0-0.2,0.2-0.2,0.3-0.2L666.7,378.1z M656.9,378.6c0,0.2,0.3,0.2,0.3,0.2l9.5,0.4c0-0.2,0-0.4,0-0.5c0-0.2,0-0.3,0-0.5
								l-9.5,0.3C657.1,378.4,656.9,378.4,656.9,378.6z"/>
							<path class="st17" d="M666.6,378.7c0-0.1,0-0.1,0-0.2l-5.6,0.1l5.6,0.2C666.6,378.8,666.6,378.7,666.6,378.7z"/>
							<path class="st17" d="M666.8,377.2c-1.6-0.4-3.2,0-4.7-0.9c1.1,1,2.8,0.6,4.6,1.2C666.8,377.4,666.8,377.3,666.8,377.2z"/>
						</g>
						<g>
							<g>
								<linearGradient id="SVGID_30_" gradientUnits="userSpaceOnUse" x1="659.8455" y1="372.3949" x2="668.1379" y2="372.3949">
									<stop  offset="7.238650e-02" style="stop-color:#FFE567"/>
									<stop  offset="0.9359" style="stop-color:#F4B13B"/>
								</linearGradient>
								<path class="st43" d="M667.5,375.5c0.2-0.3,0.4-0.7,0.7-1c-1.3-0.9-2.7-1.1-3.7-2.3c-1.3-1.5-2.8-1.6-3.5-1.9
									c-0.7-0.4-0.7-1.1-0.9-1c-0.2,0.1-0.2,0.9,0.7,1.5c0.9,0.7,1.7,0.3,3.3,2.2C665.3,374.6,666.4,374.5,667.5,375.5z"/>
								<path class="st17" d="M668.2,374.5L668.2,374.5c-0.3,0.3-0.5,0.6-0.7,1l0,0l0,0c-0.5-0.4-0.9-0.7-1.4-0.9
									c-0.7-0.3-1.4-0.7-2.1-1.6c-1-1.2-1.7-1.5-2.3-1.7c-0.3-0.1-0.6-0.2-0.9-0.5c-0.7-0.6-0.9-1.2-0.8-1.5
									c0-0.1,0.1-0.1,0.1-0.1c0.1,0,0.2,0.1,0.2,0.2c0.1,0.2,0.3,0.5,0.7,0.8c0.2,0.1,0.4,0.2,0.7,0.3c0.8,0.2,1.9,0.6,2.8,1.7
									c0.6,0.8,1.4,1.1,2.2,1.5C667.1,373.9,667.6,374.2,668.2,374.5L668.2,374.5z M667.5,375.5c0.2-0.3,0.4-0.6,0.6-0.9
									c-0.5-0.3-1-0.6-1.5-0.8c-0.8-0.4-1.6-0.7-2.2-1.5c-0.9-1.1-2-1.4-2.8-1.7c-0.3-0.1-0.6-0.2-0.7-0.3
									c-0.4-0.2-0.6-0.6-0.7-0.8c-0.1-0.2-0.1-0.2-0.2-0.2c0,0-0.1,0-0.1,0.1c-0.1,0.2,0.1,0.8,0.8,1.4c0.3,0.2,0.6,0.3,0.9,0.4
									c0.6,0.2,1.3,0.5,2.4,1.7c0.8,0.9,1.5,1.3,2.1,1.6C666.6,374.8,667,375.1,667.5,375.5z"/>
							</g>
							<linearGradient id="SVGID_31_" gradientUnits="userSpaceOnUse" x1="658.1272" y1="374.4597" x2="667.3991" y2="374.4597">
								<stop  offset="7.238650e-02" style="stop-color:#FFE567"/>
								<stop  offset="0.9359" style="stop-color:#F4B13B"/>
							</linearGradient>
							<path class="st44" d="M667.2,376.2c0.1-0.2,0.2-0.3,0.2-0.5l-8.9-3.4c0,0-0.3-0.1-0.4,0.1c-0.1,0.2,0.2,0.3,0.2,0.3l8.6,4
								C667,376.5,667.1,376.3,667.2,376.2z"/>
							<path class="st17" d="M667.4,375.6L667.4,375.6c-0.1,0.2-0.2,0.4-0.3,0.5s-0.1,0.3-0.2,0.5l0,0l0,0l-8.6-4
								c-0.1,0-0.3-0.2-0.2-0.3c0.1-0.2,0.3-0.1,0.4-0.1L667.4,375.6z M658.2,372.4c-0.1,0.2,0.2,0.3,0.2,0.3l8.6,4
								c0.1-0.2,0.1-0.3,0.2-0.5c0.1-0.2,0.1-0.3,0.2-0.5l-8.9-3.4C658.5,372.3,658.2,372.2,658.2,372.4z"/>
							<path class="st17" d="M667.2,376.2c0-0.1,0-0.1,0.1-0.1l-5.2-2l5.1,2.3C667.1,376.3,667.1,376.2,667.2,376.2z"/>
							<path class="st17" d="M667.9,374.9c-1.4-1-3-1.2-4-2.6c0.6,1.3,2.4,1.6,3.8,2.9C667.7,375.1,667.8,375,667.9,374.9z"/>
						</g>
						<g>
							<g>
								<linearGradient id="SVGID_32_" gradientUnits="userSpaceOnUse" x1="664.3183" y1="369.2617" x2="670.1237" y2="369.2617">
									<stop  offset="7.238650e-02" style="stop-color:#FFE567"/>
									<stop  offset="0.9359" style="stop-color:#F4B13B"/>
								</linearGradient>
								<path class="st45" d="M669.1,373.6c0.3-0.2,0.6-0.5,1-0.6c-0.8-1.3-2.1-2-2.6-3.6c-0.6-1.9-2-2.5-2.5-3.1
									c-0.5-0.6-0.2-1.2-0.5-1.3c-0.3,0-0.5,0.7,0.1,1.7c0.6,1,1.5,0.9,2.2,3.3C667.5,371.8,668.5,372.2,669.1,373.6z"/>
								<path class="st17" d="M670.2,372.9L670.2,372.9c-0.4,0.2-0.7,0.4-1,0.7l0,0l0,0c-0.3-0.6-0.6-1-0.9-1.4
									c-0.5-0.6-1-1.2-1.4-2.3c-0.5-1.5-1-2-1.5-2.5c-0.2-0.2-0.5-0.4-0.7-0.8c-0.5-0.8-0.4-1.5-0.2-1.7c0,0,0.1-0.1,0.1-0.1
									c0.1,0,0.1,0.1,0.1,0.3c0,0.2,0,0.6,0.3,1c0.1,0.2,0.3,0.3,0.6,0.5c0.6,0.5,1.5,1.2,1.9,2.6c0.3,0.9,0.9,1.6,1.5,2.2
									C669.4,372,669.8,372.4,670.2,372.9L670.2,372.9z M669.1,373.5c0.3-0.2,0.6-0.4,0.9-0.6c-0.3-0.5-0.7-0.9-1.1-1.3
									c-0.6-0.7-1.2-1.3-1.5-2.2c-0.4-1.4-1.3-2.1-1.9-2.6c-0.2-0.2-0.4-0.4-0.6-0.5c-0.3-0.4-0.3-0.7-0.3-1c0-0.2,0-0.3-0.1-0.3
									c0,0-0.1,0-0.1,0c-0.2,0.2-0.3,0.8,0.2,1.6c0.2,0.3,0.4,0.5,0.7,0.8c0.5,0.5,1,1,1.5,2.5c0.4,1.1,0.9,1.7,1.3,2.3
									C668.6,372.6,668.9,373,669.1,373.5z"/>
							</g>
							<linearGradient id="SVGID_33_" gradientUnits="userSpaceOnUse" x1="661.6811" y1="370.744" x2="669.0155" y2="370.744">
								<stop  offset="7.238650e-02" style="stop-color:#FFE567"/>
								<stop  offset="0.9359" style="stop-color:#F4B13B"/>
							</linearGradient>
							<path class="st46" d="M668.6,374.1c0.1-0.1,0.3-0.3,0.4-0.4l-6.9-6.5c0,0-0.2-0.2-0.4-0.1c-0.1,0.1,0.1,0.4,0.1,0.4l6.4,7
								C668.3,374.3,668.5,374.2,668.6,374.1z"/>
							<path class="st17" d="M669,373.7L669,373.7c-0.2,0.1-0.3,0.3-0.4,0.4c-0.1,0.1-0.2,0.3-0.4,0.4l0,0l0,0l-6.4-7
								c-0.1-0.1-0.2-0.3-0.1-0.4c0.1-0.1,0.3,0,0.4,0.1L669,373.7z M661.7,367.1c-0.1,0.1,0.1,0.3,0.1,0.3l6.4,7
								c0.1-0.1,0.2-0.3,0.4-0.4c0.1-0.1,0.3-0.2,0.4-0.4l-6.9-6.5C662.1,367.2,661.9,367,661.7,367.1z"/>
							<path class="st17" d="M668.6,374c0,0,0.1-0.1,0.1-0.1l-4-3.9l3.8,4.1C668.5,374.1,668.6,374.1,668.6,374z"/>
							<path class="st17" d="M669.8,373.1c-0.9-1.4-2.3-2.3-2.7-3.9c0.1,1.5,1.6,2.4,2.4,4.1C669.6,373.3,669.7,373.2,669.8,373.1z"
								/>
						</g>
						<g>
							<g>
								<linearGradient id="SVGID_34_" gradientUnits="userSpaceOnUse" x1="669.9167" y1="367.5631" x2="672.5732" y2="367.5631">
									<stop  offset="7.238650e-02" style="stop-color:#FFE567"/>
									<stop  offset="0.9359" style="stop-color:#F4B13B"/>
								</linearGradient>
								<path class="st47" d="M671.4,372.4c0.4-0.1,0.8-0.2,1.2-0.2c-0.3-1.6-1.1-2.7-1-4.3c0.2-2-0.9-3.1-1.1-3.9s0.3-1.2,0.1-1.3
									c-0.2-0.1-0.7,0.5-0.6,1.6c0.2,1.1,1,1.4,0.8,3.8C670.5,370.2,671.3,370.9,671.4,372.4z"/>
								<path class="st17" d="M672.6,372.2L672.6,372.2c-0.4,0-0.8,0.1-1.2,0.2l0,0l0,0c0-0.6-0.2-1.1-0.3-1.6
									c-0.2-0.7-0.5-1.5-0.4-2.7c0.1-1.6-0.2-2.3-0.4-2.9c-0.1-0.3-0.3-0.6-0.3-1c-0.1-0.9,0.2-1.5,0.5-1.6c0.1,0,0.1,0,0.1,0
									c0.1,0.1,0.1,0.2,0,0.3c-0.1,0.2-0.2,0.6-0.1,1c0.1,0.2,0.2,0.4,0.3,0.7c0.4,0.7,0.9,1.7,0.8,3.2c-0.1,1,0.2,1.8,0.5,2.6
									C672.3,371.1,672.5,371.6,672.6,372.2L672.6,372.2z M671.4,372.4c0.4-0.1,0.7-0.2,1.1-0.2c-0.1-0.6-0.3-1.1-0.5-1.6
									c-0.3-0.8-0.6-1.6-0.5-2.6c0.1-1.4-0.4-2.4-0.8-3.2c-0.1-0.3-0.3-0.5-0.3-0.7c-0.1-0.5,0-0.8,0.1-1c0.1-0.2,0.1-0.3,0-0.3
									c0,0-0.1,0-0.1,0c-0.2,0.1-0.6,0.6-0.4,1.6c0.1,0.4,0.2,0.7,0.3,1c0.3,0.6,0.6,1.3,0.4,2.9c-0.1,1.2,0.1,1.9,0.4,2.7
									C671.3,371.3,671.4,371.8,671.4,372.4z"/>
							</g>
							<linearGradient id="SVGID_35_" gradientUnits="userSpaceOnUse" x1="666.9584" y1="368.2317" x2="671.2647" y2="368.2317">
								<stop  offset="7.238650e-02" style="stop-color:#FFE567"/>
								<stop  offset="0.9359" style="stop-color:#F4B13B"/>
							</linearGradient>
							<path class="st48" d="M670.7,372.7c0.2-0.1,0.4-0.1,0.5-0.2l-3.9-8.7c0,0-0.1-0.3-0.3-0.2c-0.2,0.1-0.1,0.4-0.1,0.4l3.2,9
								C670.4,372.8,670.6,372.7,670.7,372.7z"/>
							<path class="st17" d="M671.3,372.5L671.3,372.5c-0.2,0.1-0.4,0.1-0.5,0.2c-0.2,0.1-0.3,0.1-0.5,0.2l0,0l0,0l-3.2-9
								c0-0.1-0.1-0.3,0.1-0.4c0.2-0.1,0.3,0.1,0.3,0.2L671.3,372.5z M667.1,363.6c-0.2,0.1-0.1,0.3-0.1,0.3l3.2,8.9
								c0.2-0.1,0.3-0.2,0.5-0.2c0.2-0.1,0.3-0.1,0.5-0.2l-3.9-8.7C667.3,363.8,667.2,363.5,667.1,363.6z"/>
							<path class="st17" d="M670.7,372.7c0.1,0,0.1,0,0.2-0.1l-2.2-5.1l1.9,5.2C670.6,372.7,670.7,372.7,670.7,372.7z"/>
							<path class="st17" d="M672.1,372.3c-0.3-1.7-1.2-3-1-4.7c-0.5,1.4,0.5,2.9,0.6,4.7C671.9,372.3,672,372.3,672.1,372.3z"/>
						</g>
					</g>
					<g>
						<linearGradient id="SVGID_36_" gradientUnits="userSpaceOnUse" x1="666.6616" y1="378.7184" x2="679.7139" y2="378.7184">
							<stop  offset="7.238650e-02" style="stop-color:#FFE567"/>
							<stop  offset="0.9359" style="stop-color:#F4B13B"/>
						</linearGradient>
						<path class="st49" d="M673.2,372.2c3.6,0,6.5,2.9,6.5,6.5c0,3.6-2.9,6.5-6.5,6.5c-3.6,0-6.5-2.9-6.5-6.5
							C666.7,375.1,669.6,372.2,673.2,372.2z"/>
						<path class="st17" d="M673.2,385.3c-3.6,0-6.6-2.9-6.6-6.6c0-3.6,2.9-6.6,6.6-6.6c3.6,0,6.6,2.9,6.6,6.6
							C679.8,382.3,676.8,385.3,673.2,385.3z M673.2,372.2c-3.6,0-6.5,2.9-6.5,6.5c0,3.6,2.9,6.5,6.5,6.5c3.6,0,6.5-2.9,6.5-6.5
							C679.7,375.1,676.8,372.2,673.2,372.2z"/>
					</g>
					<g>
						<path class="st17" d="M672.3,379.4c0,0,0.6-0.9,0.6-1.5c-0.1-0.6-0.5-1.8-1.8-1.6c0,0-1.4,0.1-2,0.8c0,0,0.7-1.1,2-1
							c1.3,0,1.7,0.7,1.7,0.7s0.2,0.2,0.2,1.1c0,0.9-0.4,1.7-0.4,1.7L672.3,379.4z"/>
						<path class="st17" d="M672.4,377.7c0,0-0.5-0.5-1-0.6c-0.5-0.1-1.6,0-2,0.6c0,0,0-0.7,1.4-0.7c0,0,0.7,0,1.2,0.3
							c0.5,0.3,0.5,0.4,0.5,0.4L672.4,377.7z"/>
						<path class="st17" d="M670.8,377.3c-0.7,0.1-1.2,0.6-1.2,0.6s0.5,0.4,1.3,0.4c0.8,0,1.1-0.4,1.1-0.4S671.5,377.2,670.8,377.3z
							 M670.8,378.2c-0.6,0-1-0.4-1-0.4s0.5-0.4,1-0.5c0.6,0,0.9,0.5,0.9,0.5S671.4,378.2,670.8,378.2z"/>
						<path class="st17" d="M671.3,377.8c0-0.2-0.2-0.4-0.4-0.4c-0.2,0-0.4,0.2-0.4,0.4c0,0.2,0.2,0.4,0.4,0.4
							C671.1,378.2,671.3,378,671.3,377.8z"/>
						<path class="st17" d="M674,379.4c0,0-0.6-0.9-0.6-1.5c0.1-0.6,0.5-1.8,1.8-1.6c0,0,1.4,0.1,2,0.8c0,0-0.7-1.1-2-1
							c-1.3,0-1.7,0.7-1.7,0.7s-0.2,0.2-0.2,1.1c0,0.9,0.4,1.7,0.4,1.7L674,379.4z"/>
						<path class="st17" d="M673.9,377.7c0,0,0.5-0.5,1-0.6c0.5-0.1,1.6,0,2,0.6c0,0,0-0.7-1.4-0.7c0,0-0.7,0-1.2,0.3
							c-0.5,0.3-0.5,0.4-0.5,0.4L673.9,377.7z"/>
						<path class="st17" d="M674.3,377.9c0,0,0.4,0.4,1.1,0.4c0.8,0,1.3-0.4,1.3-0.4s-0.5-0.5-1.2-0.6
							C674.8,377.2,674.3,377.9,674.3,377.9z M674.5,377.9c0,0,0.4-0.5,0.9-0.5c0.6,0,1,0.5,1,0.5s-0.4,0.4-1,0.4
							C674.9,378.2,674.5,377.9,674.5,377.9z"/>
						<path class="st17" d="M674.4,379.7c0,0,0.3,0.3,0,0.5c-0.3,0.2-0.5-0.2-0.5-0.2s-0.2,0.4-0.7,0.4c-0.5,0-0.7-0.4-0.7-0.4
							s-0.2,0.4-0.5,0.2c-0.3-0.2,0-0.5,0-0.5c-0.3,0.2-0.2,0.6,0,0.7c0.2,0.2,0.6-0.1,0.6-0.1c0.1,0.2,0.5,0.2,0.6,0.2
							c0.1,0,0.5,0,0.6-0.2c0,0,0.4,0.3,0.6,0.1C674.6,380.2,674.7,379.9,674.4,379.7z"/>
						<path class="st17" d="M674,380.9c-0.2-0.1-0.8,0.2-0.9,0.2c-0.1,0-0.7-0.3-0.9-0.2c-0.2,0.1-0.8,0.8-0.8,0.8
							c0,0,0.6-0.6,0.8-0.6c0.2,0,0.5,0.2,0.8,0.2c0,0,0.1,0,0.1,0c0,0,0,0,0,0c0,0,0,0,0,0c0,0,0,0,0,0c0,0,0,0,0,0
							c0,0,0.1,0,0.1,0c0.2-0.1,0.5-0.2,0.8-0.2c0.2,0,0.8,0.6,0.8,0.6C674.9,381.7,674.3,381,674,380.9z"/>
						<path class="st17" d="M673.1,381.7c0.1,0,1.4,0,1.6-0.1c0,0-1.2,0-1.6,0v0c0,0,0,0,0,0c0,0,0,0,0,0v0c-0.4,0.1-1.6,0-1.6,0
							C671.7,381.7,673,381.7,673.1,381.7L673.1,381.7C673.1,381.7,673.1,381.7,673.1,381.7C673.1,381.7,673.1,381.7,673.1,381.7
							L673.1,381.7z"/>
						<g>
							<path class="st17" d="M673.2,382L673.2,382C673.2,382,673.2,382,673.2,382C673.2,382,673.2,382,673.2,382L673.2,382
								C673.2,382,673.2,382,673.2,382L673.2,382C673.2,382,673.2,382,673.2,382C673.2,382,673.2,382,673.2,382L673.2,382
								C673.2,382,673.2,382,673.2,382z"/>
							<path class="st17" d="M672.7,382.2c-0.5,0-0.9-0.4-0.9-0.4c0.1,0.2,0.8,0.6,1,0.6c0.2,0,0.4-0.1,0.4-0.1V382
								C673.2,382.1,673.1,382.2,672.7,382.2z"/>
							<path class="st17" d="M673.6,382.2c-0.4,0-0.5-0.1-0.5-0.2v0.2c0,0,0.2,0.2,0.4,0.1c0.2,0,0.9-0.4,1-0.6
								C674.6,381.8,674.1,382.2,673.6,382.2z"/>
						</g>
						<path class="st17" d="M673.2,382.7L673.2,382.7C673.2,382.7,673.2,382.7,673.2,382.7C673.2,382.7,673.2,382.7,673.2,382.7
							L673.2,382.7c-0.1,0-0.9,0.1-0.9,0.5C672.2,383.2,672.5,382.8,673.2,382.7L673.2,382.7C673.2,382.8,673.2,382.8,673.2,382.7
							C673.2,382.8,673.2,382.8,673.2,382.7L673.2,382.7c0.7,0.1,0.9,0.5,0.9,0.5C674,382.8,673.3,382.7,673.2,382.7z"/>
						<path class="st17" d="M675.9,377.8c0-0.2-0.2-0.4-0.4-0.4s-0.4,0.2-0.4,0.4c0,0.2,0.2,0.4,0.4,0.4S675.9,378,675.9,377.8z"/>
					</g>
				</g>
				<g>
					<path class="st50" d="M659.4,422c-0.1,0-3.7-0.6-7.7,3.6c-1.3,1.3-2.5,3.1-3.8,5.5l2.6-14.8L659.4,422z"/>
					<g>
						<g>
							
								<linearGradient id="SVGID_37_" gradientUnits="userSpaceOnUse" x1="638.991" y1="510.8713" x2="636.2125" y2="285.8049" gradientTransform="matrix(0.9855 0.1702 -0.1702 0.9855 68.3943 -149.6273)">
								<stop  offset="0.5456" style="stop-color:#FFFFFF"/>
								<stop  offset="0.9769" style="stop-color:#E6E6E6"/>
							</linearGradient>
							<path class="st51" d="M659.4,422C659.4,422,659.4,422,659.4,422c-0.1-0.1-3.5-1.7-9.3-3.9c-1.6-0.6-3.3-1.3-5.2-1.9
								c-15.8-5.6-42.2-12.5-67.7-8.3l20.6-119.2c0,0,43.9-2.4,76.9,16.2c0.8,0.4,1.6,0.9,2.4,1.4c0,0,0.7,0.9,0.6,4.9
								c-0.1,2.4-0.4,6-1.3,11.3c0,0,0,0,0,0.1c-0.7,4.1-1.8,9.2-3.5,15.6c-0.3,1.2-0.6,2.4-0.9,3.6c-0.7,2.8-1.6,5.8-2.5,9
								c-3.5,12.1-5.7,22.7-7,31.8c-0.1,0.7-0.2,1.3-0.3,1.9C659.4,403.6,660.3,415.9,659.4,422z"/>
							
								<linearGradient id="SVGID_38_" gradientUnits="userSpaceOnUse" x1="585.1469" y1="441.5428" x2="684.1235" y2="441.2271" gradientTransform="matrix(0.9855 0.1702 -0.1702 0.9855 68.3943 -149.6273)">
								<stop  offset="7.238650e-02" style="stop-color:#5BCBF6"/>
								<stop  offset="0.9359" style="stop-color:#118CCF"/>
							</linearGradient>
							<path class="st52" d="M659.4,422C659.4,422,659.4,422,659.4,422c-0.1-0.1-3.5-1.7-9.3-3.9c-1.6-0.6-3.3-1.3-5.2-1.9
								c-15.8-5.6-42.2-12.5-67.7-8.3l6.8-39.6c25,0.7,48.9,5.6,68.5,11.3c3.4,1,6.6,2,9.8,3c-0.1,0.7-0.2,1.3-0.3,1.9
								C659.4,403.6,660.3,415.9,659.4,422z"/>
							
								<linearGradient id="SVGID_39_" gradientUnits="userSpaceOnUse" x1="582.2228" y1="358.3994" x2="675.3585" y2="360.7672" gradientTransform="matrix(0.9855 0.1702 -0.1702 0.9855 68.3943 -149.6273)">
								<stop  offset="7.238650e-02" style="stop-color:#5BCBF6"/>
								<stop  offset="0.9359" style="stop-color:#118CCF"/>
							</linearGradient>
							<path class="st53" d="M672.2,341.8c-0.1,0-0.2-0.1-0.3-0.1c-1.9-0.7-3.9-1.4-6-2.1c-19.8-6.7-46.5-13.3-74.6-12.7l6.6-38.2
								c0,0,43.9-2.4,76.9,16.2c0.8,0.4,1.6,0.9,2.4,1.4c0,0,0.7,0.9,0.6,4.9c-0.1,2.5-0.5,6.2-1.3,11.3c0,0,0,0,0,0.1
								C675.5,327.3,674.2,333.7,672.2,341.8z"/>
						</g>
						<path class="st54" d="M659.4,422C659.4,422,659.4,422,659.4,422c-0.1-0.1-3.5-1.7-9.3-3.9c-1.6-0.6-3.3-1.3-5.2-1.9
							c1.6-5.8,4.2-21.3,7.6-36.7c2.6-11.6,5.7-23.2,9.3-30.4c1.5-3,2.8-6.2,4-9.5c5.1-13.8,7.9-28.8,8.9-34.8
							c0.8,0.4,1.6,0.9,2.4,1.4c0,0,0.7,0.9,0.6,4.9c-0.1,2.4-0.4,6-1.3,11.3c0,0,0,0,0,0.1c-0.8,4.9-2.1,11.3-4.1,19.4
							c-0.1,0-0.2-0.1-0.3-0.1c-0.7,2.8-1.6,5.8-2.5,9c-3.5,12.1-5.7,22.7-7,31.8c-0.1,0.7-0.2,1.3-0.3,1.9
							C659.4,403.6,660.3,415.9,659.4,422z"/>
					</g>
				</g>
			</g>
		</g>
	</g>
	<g>
		<g>
			
				<linearGradient id="SVGID_40_" gradientUnits="userSpaceOnUse" x1="520.9598" y1="452.4842" x2="413.0367" y2="517.6212" gradientTransform="matrix(0.9846 0.1751 -0.1751 0.9846 204.8457 -161.3389)">
				<stop  offset="7.238650e-02" style="stop-color:#FFE567"/>
				<stop  offset="0.9359" style="stop-color:#F4B13B"/>
			</linearGradient>
			<polygon class="st55" points="561.8,514.2 556.5,513.2 597.6,281.9 603,282.8 			"/>
			
				<rect x="579.7" y="280.8" transform="matrix(0.9845 0.1751 -0.1751 0.9845 78.7188 -95.5979)" class="st56" width="2.7" height="235"/>
		</g>
		<g>
			
				<linearGradient id="SVGID_41_" gradientUnits="userSpaceOnUse" x1="462.7642" y1="352.9809" x2="469.7535" y2="372.2221" gradientTransform="matrix(0.9846 0.1751 -0.1751 0.9846 204.8457 -161.3389)">
				<stop  offset="7.238650e-02" style="stop-color:#FFE567"/>
				<stop  offset="0.9359" style="stop-color:#F4B13B"/>
			</linearGradient>
			<path class="st57" d="M607.4,280.6c-0.6,3.6-4.1,6-7.7,5.4c-3.6-0.6-6-4.1-5.4-7.7c0.6-3.6,4.1-6,7.7-5.4
				C605.6,273.6,608,277,607.4,280.6z"/>
			<path class="st15" d="M607.4,280.6c-0.6,3.6-4.1,6-7.7,5.4c-3.6-0.6-6-4.1-5.4-7.7l0-0.1c1,1.4,2.5,2.4,4.3,2.7
				c3.6,0.6,7-1.7,7.7-5.3C607.2,277,607.7,278.8,607.4,280.6z"/>
		</g>
	</g>
</g>
<g>
	<g>
		<path class="st58" d="M199.7,351.4c0,28.4-23,51.5-51.5,51.5s-51.5-23-51.5-51.5c0-24.7,17.4-45.3,40.6-50.3l1.5,0l1-0.5
			c0.8-0.1,1.7-0.3,2.5-0.4l1.8,0.1l1.3-0.3c0.2,0,0.5,0,0.7,0l2,0.3l1.3-0.3c0.3,0,0.5,0,0.8,0l2.8,0.7l3.3-0.1
			c0.4,0.1,0.8,0.1,1.2,0.2l12.2,7.8l13.3,5.1C193.4,323,199.7,336.5,199.7,351.4z"/>
		<path class="st59" d="M150.8,316.2c3.4,1.1,3.2-1,5.3,1.4c1.2,1.4,3.4,4,6,4.6c0.4,0.1,1.2-0.7,1.2-1.3c0-0.6-1.8-1.9-2.8-2.2
			c-1-0.3,0.4-2.2-1-2.8s-2.9-2.8-3.5-4.5c-0.6-1.7-3-0.3-3.8-0.6c-0.8-0.3-1.9-0.1-2.8,1.2S149.9,315.9,150.8,316.2z"/>
		<path class="st59" d="M168.9,364.6c0-0.7-6.6-4.3-7.4-4.4c-1.3-0.1-3.1-0.7-4.3,0c-0.5,0.3-0.9,0.7-1.3,1.2
			c-0.2,0.4-1.5-0.4-2-0.1c-1.2,0.6-1.9-1.4-1.5-2.2c0.8-1.9-2.1-0.7-2.4-1.2c0.4,0.6-0.1-5.5-1.1-2c-0.8,2.6-3.8-0.4-3.5-2.3
			c0.6-2.9,5-3.4,6-2.8c0.5,0.3,2.3,2.9,2.5,2.8c0.5-0.2-0.3-3.1-0.4-3.5c-0.4-1.4,2.4-1.9,2.6-3.4c0.2-1.3,1-0.8,1.9-1.5
			c1.2-1,0.3-2.8,1.9-3.7c0.5-0.3,2.6-0.6,2.8-1.1c0.2-0.5-1.7-1.9,0-2.3c1.5-0.4,3,0.3,3.4-1.9c0.4-2-1.8-2.4-2.5-4
			c-0.2-0.5-0.4-3.1-1.4-2.6c-1.1,0.6-1.9,2.1-2.8,0.3c-1.7-3.1-5.9-4.5-3.9,0.4c1,2.5-2.8,10.3-3.3,3.1c-0.2-2.5-7.6-3.2-5.1-6
			c2.5-2.8,6-2.9,6.9-7.2c1.3-5.9-2.8-0.9-4.9-2c-3.1-1.7-0.5-0.8-2.1,1.4c-0.6,0.8-2.6-0.5-3.5-0.4c-0.8,0.1-3,2-3.5,0.8
			c-1.1-2.1-8.4-3.4-10.4-2.6c-4.1,1.6-5.6-0.5-9.7-1.4c-1.4-0.3-8.5-0.5-8,2c0.2,1,0.9,1.7,1.2,2.6c0.4,1.3-1.6,0.3-2,0.6
			c-0.1,0.1,2.4,1.9,2.6,2.1c0.7,0.7-2.6,1.5-2.9,2.7c-0.7,2.4,4.5,1.7,3.6,4.5c-0.3,0.9-3.2,2.3-3.5,5.1c-0.1,0.6,3.7-3.6,6.1-2.7
			c2.1,0.8,1.9-5,4.6-5c4.9,0,5.9,4.8,8.4,8c1.2,1.5,2.2,2.1,2.4,4.1c0.2,1.8-0.2,4,0.5,5.8c0.6,1.7,1.9,1.8,2.8,3.1
			c1,1.6,1.6,3.1,2.9,4.5c2,2,5.4,5,8.5,4.6c0.6-0.1,2.9,1.2,3.5,1.6c0.8,0.6,1.2,1.5,1.8,2.3c0.5,0.7,2.3,0.3,3,0.6
			c0.7,0.3-1.8,5.5-0.9,6.8c1,1.5,1,3.2,2.5,4.3c1.4,1.1,1.8,1.2,2,3.1c0.3,3.1-0.6,6.3-1.4,9.2c-0.4,1.5,0.4,3.2-0.2,4.6
			c-0.7,1.8-1.2,3.3-0.6,5.3c1.1,3.5,7.3,4,3.6,1c-1.6-1.3,1.7-4.4,0.7-4.7c-1.7-0.7,0.3-1.4,0.6-2.2c0.5-1.5,7.4-7.8,7.9-8.8
			c0.4-0.9,0.2-1.8,0.9-2.5c0.8-0.8,1.9-0.5,2.7-1.1c1.8-1.2,1.2-3.3,1.9-5c1.5-3.4,2.1-2,0.1-4.7
			C174.1,367,169.1,367.4,168.9,364.6z"/>
		<path class="st59" d="M131.8,313.8c1.3,1.3,2.5-0.7,2.7,0c0.2,0.7,0.2,2,1.8,2.1c1.5,0.1-1.4,1.1-0.4,1.5c1,0.4,3,1.7,3.8,1.2
			c0.8-0.6,1.7-1,2-0.6c0.3,0.4,2.4-0.1,1.8-0.8c-0.6-0.7-2.2-2.3-2.1-3.3c0.1-0.9,1.9-3.4-0.1-3.2c-1.3,0.1-1.6,1.3-1.6,2
			c0,0.7-1.9-1-2.2-1c-0.3,0-1.7-2.1-2.1-2.1c-0.5,0-3.7-1-3.5,0S130.6,312.4,131.8,313.8z"/>
		<path class="st59" d="M160.9,323.7c-1-0.6-2.8-3.1-3.7-2.3c-0.8,0.8,0.2,2.7,0.9,3.5c0.7,0.8,3.6,2.6,3.2,1.8
			C160.9,325.9,162.8,324.8,160.9,323.7z"/>
		<path class="st59" d="M133.7,306c0.5,0,1.3,1.7,2,1.9c0.7,0.2,1.1,1.1,1.4,1.3c0.3,0.2,3.4-1,4.1-1.3c0.9-0.3-0.9-2-1.5-3.2
			c-0.6-1.2-0.1,2-1,1.5c-0.9-0.5-0.7-1.2-1.8-1.2c-1.1,0-0.3-2.2-1.7-1.7C133.9,303.7,133.2,306.1,133.7,306z"/>
		<path class="st59" d="M144.9,310.2c-0.9,0.2-0.7,0.8-1.2,1.3c-0.5,0.5-0.5,1.2,0,1.8c0.5,0.6,1.2,1.7,1.8,0.6c0.6-1,0-1.8,0-2.5
			C145.4,310.8,145.3,310.1,144.9,310.2z"/>
		<path class="st59" d="M146.7,313.4c0.2,0.6,0.6-1,1.5-1.8c0.9-0.8-0.4-2.8-1.3-1.8C146.4,310.6,146.5,312.9,146.7,313.4z"/>
		<path class="st59" d="M146.6,314.1c-0.5,0.7-0.9,2.5,0,2.6c0.9,0.1,1.4-0.8,1-1.5C147.2,314.5,146.8,313.9,146.6,314.1z"/>
		<path class="st59" d="M150,302.4c-0.8,0.4,1.2,1.1-0.2,1.4c-1.4,0.4-1.4,1.5-2.6,0.6c-1.2-1-2.5,0.3-1.6,0.9s2.4,2,2.4,2.8
			c0,0.8,1.4,1.2,2.8,1.1c1.4-0.1,3,0.3,3.1-0.3c0-0.6,0.2-0.8,0-1.3c-0.2-0.7-0.8-1.3-2.3-0.7c-1.4,0.6-2.4,0.3-2.6-0.4
			c-0.2-0.7,2.8-2,4.1-1.1c1.3,0.9,2.6-0.5,1.6-1.2s-0.3-1.3,0.3-1.4c0.5-0.1,0.9-1.3,1.3-2.2c-2-0.3-4.1-0.5-6.2-0.6
			C150.4,301.3,150.9,302.1,150,302.4z"/>
		<path class="st59" d="M137.8,301.3c0.9,0.4,2.4,0,2.2-0.7c-0.8,0.1-1.7,0.3-2.5,0.5C137.5,301.1,137.6,301.2,137.8,301.3z"/>
		<path class="st59" d="M138.3,302c-1.3-0.7-1.2,1-0.6,1.6C138.3,304.3,140,302.9,138.3,302z"/>
		<path class="st59" d="M146.2,299.9c1,0.2,1.6,0.9,1.8,1.5c0.2,0.6,1.6-0.7,1.6-1.5c-0.4,0-0.9,0-1.3,0
			C147.6,299.9,146.9,299.9,146.2,299.9z"/>
		<path class="st59" d="M143.5,301.9c-0.6,0.8-0.1,1.8,0.6,1c0.7-0.8,0.1-2.8,0.7-2c0.6,0.9,1.6,2.3,2.3,2.3c0.7,0.1,0.1-0.8,0-1.6
			c-0.1-0.6-1.7-1.4-1.6-1.7c-1,0.1-2,0.1-3.1,0.3C143.2,300.7,143.9,301.3,143.5,301.9z"/>
		<path class="st59" d="M146.6,308.8c0.8,0.3,0-1.7,0-1.7C145.7,307.7,145.7,308.5,146.6,308.8z"/>
		<path class="st59" d="M143.6,307.5c0.1,0.6,1,0.7,1.5,0c0.5-0.7,0-3.4-0.7-2.6c-0.7,0.9-1.4,0.5-2.8,0
			C140.3,304.5,143.5,307,143.6,307.5z"/>
		<path class="st59" d="M152.7,354.8c1.1-0.1,1.8,1.2,3.1,1.2s3.2,1.9,4.3,0.7c0.9-0.9-4-1.7-5.5-2.5
			C153,353.3,151.5,354.9,152.7,354.8z"/>
		<path class="st59" d="M158.3,302.7c1.6,0.8,1.3,0.7,0.3,1.5c-1,0.7-0.6,2.4,1.5,2.2s3.5-2.2,4.4,0.8c1,3,0.3,6.3,1.5,7.2
			c1.2,0.9,0.2,1.6,0,2.4c-0.2,0.9,0.3,1.5,1.3,1.2s0.7,1.5,0,2.3c-0.7,0.8-1.5,2.2,0.6,4.9c2.1,2.6,2.4,2.3,3.1,3.2
			c0.7,0.9,1.2-0.3,1.5-1.4c0.2-1-0.5-4.7,1.9-4.7c2.4,0,3.1-1.9,3.4-2.6c0.3-0.6,2.2-0.6,3.3-1.5c0.9-0.8,2-1.5,2-4.6
			c-7-6.5-15.8-11-25.5-12.8C157.5,301.5,157.5,302.3,158.3,302.7z"/>
	</g>
</g>
<g>
	<path class="st60" d="M200.9,240.4c6.9-6.9,7.5-8.5,11.8-4.3c4.2,4.2,2.6,4.9-4.3,11.8c-5.1,5.1-11.6,4.2-11.6,4.2
		S195.8,245.5,200.9,240.4z"/>
	<path class="st60" d="M214,247.4c2.7-7.2,3.6-8.1-0.3-10.3c-3.9-2.2-3.9-0.7-6.6,6.5c-2,5.4,0.4,10.1,0.4,10.1S212,252.8,214,247.4
		z"/>
	<path class="st61" d="M210,240.7c1.5-4,1.5-4.8,3.6-3.6c2.2,1.2,1.7,1.7,0.2,5.7c-1.1,3-3.6,3.5-3.6,3.5S208.9,243.7,210,240.7z"/>
	<path class="st60" d="M211.6,235.1c-2.2-3.9-3.1-3-10.3-0.3c-5.4,2-6.3,6.5-6.3,6.5s4.8,2.4,10.1,0.4
		C212.3,239,213.8,239,211.6,235.1z"/>
	<path class="st61" d="M208,238.7c4-1.5,4.8-1.5,3.6-3.6c-1.2-2.2-1.7-1.7-5.7-0.2c-3,1.1-3.5,3.6-3.5,3.6S205,239.9,208,238.7z"/>
	<path class="st61" d="M206.1,238.5c3.8-3.8,4.2-4.7,6.5-2.4c2.3,2.3,1.4,2.7-2.4,6.5c-2.8,2.8-6.5,2.3-6.5,2.3
		S203.3,241.3,206.1,238.5z"/>
	<path class="st62" d="M214,222c-10.7-17.9-28.3-10.5-28.3-10.5s25.2-25.2,42.2-8.3L214,222z"/>
	<path class="st63" d="M222.3,208.8l5.6-5.6c-17-17-42.2,8.3-42.2,8.3S207.8,195.6,222.3,208.8z"/>
	<path class="st62" d="M226.8,234.8c17.9,10.7,10.5,28.3,10.5,28.3s25.2-25.2,8.3-42.2L226.8,234.8z"/>
	<path class="st63" d="M240,226.5l5.6-5.6c17,17-8.3,42.2-8.3,42.2S253.2,241,240,226.5z"/>
	<path class="st64" d="M265.9,209.7c-20,20-42.2,30.7-49.9,23c-7.7-7.7,3-29.9,23-49.9c23.3-23.3,49.3-22.4,49.3-22.4
		S289.2,186.5,265.9,209.7z"/>
	<path class="st65" d="M260.9,204.1c-20,20-39.9,33-44.5,28.4c-4.6-4.6,8.4-24.6,28.4-44.5c23.3-23.3,43.9-27.8,43.9-27.8
		S284.1,180.8,260.9,204.1z"/>
	<path class="st66" d="M223.9,238.2c-0.9,0.9-2.2,0.9-3,0.1L210.6,228c-0.9-0.9-0.9-2.3-0.1-3.2l3.1-3.1l13.4,13.4L223.9,238.2z"/>
	<path class="st67" d="M221,235.3c-0.9,0.9-1.9,1.2-2.4,0.7l-5.8-5.8c-0.5-0.5-0.2-1.6,0.6-2.5l3.1-3.1l7.5,7.5L221,235.3z"/>
	<path class="st68" d="M218,239.4c-0.6,0.6-1.6,0.5-2.2,0l-6.7-6.7c-0.6-0.6-0.4-1.5,0.2-2l2-2l8.7,8.7L218,239.4z"/>
	<path class="st69" d="M216.7,238.1c-0.6,0.6-1.5,0.7-1.9,0.3l-4.7-4.6c-0.4-0.4-0.1-1.2,0.4-1.7l2-2l6.1,6.1L216.7,238.1z"/>
	<path class="st66" d="M288.3,160.5c0,0-9.3-0.3-21.8,4.4l17.4,17.4C288.6,169.8,288.3,160.5,288.3,160.5z"/>
	<path class="st67" d="M288.3,160.5c0,0-7.5,1.5-18.5,7.8l10.7,10.6C286.7,167.9,288.3,160.5,288.3,160.5z"/>
	
		<ellipse transform="matrix(0.1602 -0.9871 0.9871 0.1602 26.2102 414.7033)" class="st70" cx="256.8" cy="191.9" rx="8.6" ry="8.6"/>
	
		<ellipse transform="matrix(0.9239 -0.3827 0.3827 0.9239 -53.9065 112.8904)" class="st62" cx="256.8" cy="191.9" rx="5.7" ry="5.7"/>
	<circle class="st70" cx="239.6" cy="209.1" r="8.6"/>
	<circle class="st62" cx="239.6" cy="209.1" r="5.7"/>
	<path class="st3" d="M266,168.6c-0.6,0.6-1.5,0.6-2,0c-0.6-0.6-0.6-1.5,0-2c0.6-0.6,1.5-0.6,2,0C266.6,167.1,266.6,168,266,168.6z"
		/>
	<path class="st3" d="M269.1,170.2c0.8,0,1.4,0.6,1.4,1.4c0,0.8-0.6,1.4-1.4,1.4c-0.8,0-1.4-0.6-1.4-1.4
		C267.6,170.8,268.3,170.2,269.1,170.2z"/>
	<path class="st3" d="M273.1,174.2c0.8,0,1.4,0.6,1.4,1.4c0,0.8-0.6,1.4-1.4,1.4s-1.4-0.6-1.4-1.4
		C271.7,174.9,272.3,174.2,273.1,174.2z"/>
	<path class="st3" d="M277.2,178.3c0.8,0,1.4,0.6,1.4,1.4c0,0.8-0.6,1.4-1.4,1.4c-0.8,0-1.4-0.6-1.4-1.4
		C275.7,178.9,276.4,178.3,277.2,178.3z"/>
	<path class="st3" d="M281.2,182.3c0.8,0,1.4,0.6,1.4,1.4c0,0.8-0.6,1.4-1.4,1.4s-1.4-0.6-1.4-1.4
		C279.8,182.9,280.4,182.3,281.2,182.3z"/>
</g>
<g>
	<path class="st71" d="M253.6,670.9h84.7c1.3,0,2.3-1.1,2.3-2.4v-56.7c0-1.3-1-2.4-2.3-2.4h-84.7c-1.3,0-2.3,1.1-2.3,2.4v56.7
		C251.3,669.8,252.3,670.9,253.6,670.9z"/>
	<path class="st71" d="M244.5,679.2c0,2.9,2.3,5.7,5.1,5.7h92.7c2.7,0,5.1-2.9,5.1-5.7H244.5z"/>
	<polygon class="st72" points="338.9,670.9 253.1,670.9 244.5,679.2 347.5,679.2 	"/>
	<polygon class="st73" points="336,671.5 256,671.5 253.1,675 338.9,675 	"/>
	<polygon class="st71" points="304.8,676.6 287.2,676.6 285.9,678.3 306.1,678.3 	"/>
	<rect x="256.5" y="614.6" class="st68" width="78.9" height="51.1"/>
	<circle class="st72" cx="296" cy="612.1" r="1.3"/>
	<path class="st68" d="M303.4,682.9h-14.8c-0.5,0-1.9,0-1.9-1.7h18.5C305.2,682.9,303.9,682.9,303.4,682.9z"/>
</g>
<g>
	<path class="st74" d="M368.2,199.4c0,3.8,3.1,6.9,6.9,6.9s6.9-3.1,6.9-6.9H368.2z"/>
	<path class="st75" d="M362.9,182.3h24.2c1.4-7.4,6-14.6,10.8-22.1c5.6-8.8,11.4-17.8,11.4-26.6c0-16.6-15.4-30.2-34.3-30.2
		s-34.3,13.5-34.3,30.2c0,8.8,5.8,17.9,11.4,26.6C356.9,167.7,361.5,174.9,362.9,182.3z"/>
	<path class="st76" d="M362.4,152.8c0.1-0.4,0.3-0.6,0.4-0.6c0.1,0,0.3,0,0.3,0c0.1,0,0.2,0.1,0.3,0.3c0.6,0.6,1,1.6,1.3,2.5
		c0.1,0.3,0.2,0.7,0.3,1.1c-0.7-0.1-1.4-0.4-1.8-0.8C362.6,154.5,362.2,153.5,362.4,152.8z M374,146.8c0.3-0.4,0.7-0.7,1-0.7
		s0.8,0.2,1,0.7c0.3,0.5,0.2,1.3-0.1,2c-0.2,0.5-0.6,1-0.9,1.4c-0.4-0.5-0.7-0.9-0.9-1.4C373.8,148.1,373.6,147.3,374,146.8z
		 M385.3,154.9c0.3-0.9,0.7-1.9,1.3-2.5c0.1-0.1,0.3-0.2,0.3-0.3c0,0,0.2,0,0.3,0c0.2,0,0.4,0.2,0.4,0.6c0.1,0.7-0.2,1.7-0.8,2.3
		c-0.4,0.4-1.1,0.7-1.8,0.8C385.1,155.6,385.2,155.2,385.3,154.9z M365.5,157.5c0.2,1,0.5,2,0.7,3c0.5,1.9,0.9,3.7,1.3,5.4
		c1.6,6.4,3,12,4.1,16.2h1c-0.9-4.3-2.1-10-3.6-16.5c-0.4-1.8-0.8-3.6-1.2-5.5c-0.2-0.9-0.4-1.8-0.6-2.8c1.4-0.3,4.6-1.4,7.9-5
		c3.3,3.6,6.4,4.6,7.9,5c-0.2,1-0.4,1.9-0.6,2.8c-0.4,1.9-0.8,3.7-1.2,5.5c-1.5,6.6-2.7,12.2-3.6,16.5h1c1.1-4.3,2.5-9.8,4.1-16.2
		c0.4-1.8,0.9-3.6,1.3-5.4c0.3-1,0.5-2,0.7-3c1.3-0.1,2.5-0.5,3.5-1.4c1-1,1.5-2.3,1.3-3.6c-0.1-0.7-0.6-1.5-1.5-1.8
		c-0.4-0.1-0.9-0.2-1.4,0c-0.5,0.2-0.8,0.4-1,0.7c-0.9,1-1.2,2-1.6,3c-0.2,0.5-0.3,1-0.5,1.5c0,0-1.5,0.1-4.6-2
		c-1.7-1.2-2.2-2-2.7-2.6c0.5-0.6,1.1-1.3,1.5-2.1c0.2-0.4,0.4-0.9,0.5-1.5c0.1-0.5,0-1.2-0.4-1.7c-0.3-0.5-0.8-1-1.5-1.3
		c-0.3-0.1-0.7-0.2-1-0.2c-0.3,0-0.7,0-1,0.2c-0.7,0.3-1.2,0.8-1.5,1.3c-0.3,0.5-0.4,1.2-0.4,1.7c0.1,0.5,0.2,1,0.5,1.5
		c0.4,0.8,0.9,1.5,1.5,2.1c-0.5,0.6-1,1.4-2.7,2.6c-3.1,2.1-4.6,2-4.6,2c-0.1-0.5-0.3-1-0.5-1.5c-0.4-1-0.7-2-1.6-3
		c-0.2-0.2-0.6-0.5-1-0.7c-0.6-0.1-1-0.1-1.4,0c-0.9,0.3-1.4,1.1-1.5,1.8c-0.2,1.4,0.3,2.6,1.3,3.6C363,157,364.2,157.4,365.5,157.5
		z"/>
	<rect x="362.8" y="185.6" class="st77" width="24.6" height="3.2"/>
	<rect x="364.5" y="191.9" class="st77" width="21.2" height="3.2"/>
	<rect x="364.5" y="188.8" class="st74" width="21.2" height="3.2"/>
	<polygon class="st77" points="387.4,185.6 364.5,191.9 364.5,195.1 387.4,188.8 	"/>
	<rect x="366.2" y="198.2" class="st77" width="17.7" height="3.2"/>
	<rect x="366.2" y="195.1" class="st74" width="17.7" height="3.2"/>
	<polygon class="st77" points="385.6,191.9 366.2,198.2 366.2,201.4 385.6,195.1 	"/>
</g>
<g>
	<path class="st78" d="M558.8,234.9l12.4,13l-55,27.6c0,0-7.3,3.5-10.7-2.1C491.9,251.1,558.8,234.9,558.8,234.9z"/>
	<path class="st79" d="M514.8,259.3c0,0-10.5,3.9-8.6,11.3c2,7.7,10.4,3,10.4,3l52.3-25.8c0,0-2.9-8.2,2.4-13.7L514.8,259.3z"/>
	<polygon class="st80" points="523.7,182.1 573.7,233.8 514.6,258.3 476.6,195.5 	"/>
	<polygon class="st77" points="568.9,239.9 533.8,255 568.2,238.3 	"/>
	<polygon class="st77" points="568.3,244.3 531.1,260.6 567.6,242.8 	"/>
	<polygon class="st77" points="568.7,246.9 521.2,268.7 567.9,245.4 	"/>
	<path class="st63" d="M505.5,273.4c-5.8-12.8,9.1-15.1,9.1-15.1l-38-62.8c0,0-8.7-0.3-8.7,9.2c0,3.9,1.7,6.8,1.7,6.8L505.5,273.4z"
		/>
	<path class="st81" d="M479.6,222l-12.4,13l55,27.6c0,0,7.3,3.5,10.7-2.1C546.5,238.3,479.6,222,479.6,222z"/>
	<path class="st79" d="M523.5,246.5c0,0,10.5,3.9,8.6,11.3c-2,7.7-10.4,3-10.4,3L469.5,235c0,0,2.9-8.2-2.4-13.7L523.5,246.5z"/>
	<polygon class="st82" points="514.7,169.2 464.6,220.9 523.8,245.4 561.8,182.6 	"/>
	<polygon class="st77" points="470.2,225.5 504.5,242.1 469.5,227 	"/>
	<polygon class="st77" points="470.8,229.9 507.3,247.8 470,231.5 	"/>
	<polygon class="st77" points="470.4,232.5 517.2,255.8 469.7,234.1 	"/>
	<path class="st83" d="M532.9,260.6c5.8-12.8-9.1-15.1-9.1-15.1l38-62.8c0,0,8.7-0.2,8.7,9.2c0,3.9-1.7,6.8-1.7,6.8L532.9,260.6z"/>
	<path class="st84" d="M561.9,211.3l10.5,11l-46.4,23.3c0,0-6.1,3-9-1.8C505.4,225.1,561.9,211.3,561.9,211.3z"/>
	<path class="st79" d="M524.8,232c0,0-8.9,3.3-7.3,9.6c1.7,6.5,8.8,2.5,8.8,2.5l44.1-21.8c0,0-2.5-6.9,2-11.6L524.8,232z"/>
	<polygon class="st85" points="532.2,166.8 574.5,210.4 524.6,231.1 492.5,178.1 	"/>
	<polygon class="st3" points="533.5,176.8 541.6,185.9 511.3,197.3 504.1,185.7 	"/>
	<polygon class="st77" points="570.4,215.7 540.8,228.3 569.7,214.1 	"/>
	<polygon class="st77" points="570,219.4 538.5,233.1 569.3,217.9 	"/>
	<polygon class="st77" points="570.3,221.6 530.1,239.8 569.5,220.1 	"/>
	<path class="st66" d="M516.9,243.9c-4.9-10.8,7.6-12.8,7.6-12.8l-32.1-53c0,0-7.3-0.2-7.3,7.8c0,3.3,1.4,5.8,1.4,5.8L516.9,243.9z"
		/>
</g>
<g>
	<path class="st77" d="M573.3,605l13.6-13.6l17.3,10.5c0,0-1.2,10.9,3.9,21.5l-17.1-17.1c0-0.8-0.2-1.6-0.8-2.2
		c-1.1-1.1-2.9-1.1-4.1,0c-1.1,1.1-1.1,2.9,0,4.1c0.6,0.6,1.4,0.9,2.2,0.8l17.1,17.1c-10.6-5-21.5-3.9-21.5-3.9L573.3,605z"/>
	<path class="st68" d="M502.4,520.5c5.6-5.6,14.7-5.6,20.4,0l8,8c0,0,8.6,3.1,24.2,18.7c15.6,15.6,18.8,24.2,18.8,24.2l16.6,16.6
		l-20.4,20.4l-16.6-16.6c0,0-8.6-3.1-24.2-18.8c-15.6-15.6-18.8-24.2-18.8-24.2l-8-8C496.8,535.3,496.8,526.1,502.4,520.5z"/>
	
		<rect x="504.9" y="535.5" transform="matrix(0.707 -0.7072 0.7072 0.707 -227.8919 524.6821)" class="st77" width="28.8" height="3.8"/>
	
		<rect x="550.5" y="581.1" transform="matrix(0.7062 -0.708 0.708 0.7062 -246.8114 571.2462)" class="st77" width="28.8" height="3.8"/>
</g>
<g>
	<path class="st77" d="M425.1,653.9c-1.8-1.8-4.4-4.4-8.2-8.2c-10.5-10.4-3.7-17.8-3.7-17.8l-7.9-7.9c0,0-13,15.1,1.8,29.9
		l10.9,10.9L425.1,653.9z"/>
	<path class="st77" d="M440.6,636.1h12.4c8.3-18.7-2.7-42.2-3-42.7l-9.9,5C440.1,598.5,448.2,621.9,440.6,636.1z"/>
	<path class="st86" d="M459.3,641.3L459.3,641.3c-2.5-8.1-10.1-13.9-19-14c-8.9,0.1-16.4,5.9-19,13.9l0,0l-9,25.8h55.9L459.3,641.3z
		"/>
	<polygon class="st86" points="415.7,607.1 457.9,571.2 468.8,583.9 426.6,619.7 	"/>
	<polygon class="st77" points="424.6,617.4 417.7,609.4 414.4,613.6 419.9,619.9 	"/>
	<polygon class="st77" points="471,578 464.1,570 459.9,573.6 466.8,581.5 	"/>
	<polygon class="st86" points="473,580.3 462.1,567.7 466.3,564.1 477.2,576.7 	"/>
	<path class="st87" d="M457.2,604.9c-2,5.8-8.4,8.8-14.2,6.7c-5.8-2-8.8-8.4-6.8-14.1c2-5.7,8.4-8.8,14.2-6.7
		C456.2,592.9,459.2,599.2,457.2,604.9z"/>
	<ellipse class="st87" cx="440.3" cy="647.2" rx="11.1" ry="11"/>
	<path class="st86" d="M444.9,606.4c2.9,1,6.1-0.5,7.1-3.4c1-2.9-0.5-6-3.4-7.1c-2.9-1-6.1,0.5-7.1,3.4
		C440.4,602.3,442,605.4,444.9,606.4z"/>
	<ellipse class="st86" cx="440.3" cy="647.2" rx="5.6" ry="5.5"/>
	
		<rect x="407.7" y="609.9" transform="matrix(0.7067 -0.7076 0.7076 0.7067 -321.44 472.4925)" class="st86" width="2.8" height="27.9"/>
	
		<rect x="409.7" y="608" transform="matrix(0.7067 -0.7076 0.7076 0.7067 -319.4862 473.3037)" class="st88" width="2.8" height="27.9"/>
</g>
</svg>
